<svg xmlns="http://www.w3.org/2000/svg" width="24.33" height="23.236" viewBox="0 0 24.33 23.236">
  <path id="Path_600" data-name="Path 600" d="M121.418,44.646V49.3a.942.942,0,0,1,0,1.7v.345a.414.414,0,1,1-.828,0V51a.942.942,0,0,1,0-1.7V45.152a27.447,27.447,0,0,1-3.83,1.873c-.154-1.925-3.393-2.787-6.6-2.787s-6.443.862-6.594,2.79h0a27.38,27.38,0,0,1-5.453-2.9.268.268,0,0,1,.095-.484,43.756,43.756,0,0,0,11.584-4.2.735.735,0,0,1,.738,0,43.763,43.763,0,0,0,11.584,4.2h0a.269.269,0,0,1,.095.484c-.261.179-.526.352-.792.522Zm-16.834,2.526v3.569c2.063,0,4.806,1.573,5.578,1.573s3.515-1.573,5.578-1.573V47.172c0-1.055-2.493-1.908-5.578-1.908S104.584,46.117,104.584,47.172Zm15.58,6.93H102.238a2.62,2.62,0,1,0,0,5.24h1.873V58.261h-1.873a1.539,1.539,0,1,1,0-3.077h17.926a.541.541,0,1,0,0-1.081Zm0,4.159H109.678v1.081h10.486a.541.541,0,1,0,0-1.081ZM105.64,56.909h0a.178.178,0,0,0-.178.178v5.307a.178.178,0,0,0,.32.107l.97-1.281a.178.178,0,0,1,.284,0l.969,1.281h0a.178.178,0,0,0,.321-.107V57.087a.178.178,0,0,0-.178-.178Z" transform="translate(-97.996 -39.337)" fill="#7e8397"/>
</svg>
