<svg xmlns="http://www.w3.org/2000/svg" width="25" height="13.368" viewBox="0 0 25 13.368">
  <path id="Path_619" data-name="Path 619" d="M102.316,137.76H90.684a6.684,6.684,0,0,0,0,13.368h11.632a6.684,6.684,0,0,0,0-13.368Zm-12,8.868a2.184,2.184,0,1,1,2.184-2.184A2.179,2.179,0,0,1,90.316,146.628Zm6.184,0a2.184,2.184,0,1,1,2.184-2.184A2.179,2.179,0,0,1,96.5,146.628Zm6.184,0a2.184,2.184,0,1,1,2.184-2.184A2.179,2.179,0,0,1,102.684,146.628Z" transform="translate(-84 -137.76)" fill="#7e8397"/>
</svg>
