<svg xmlns="http://www.w3.org/2000/svg" width="23.994" height="24" viewBox="0 0 23.994 24">
  <g id="architecture_s" transform="translate(-93.4 -23.333)">
    <path id="Path_614" data-name="Path 614" d="M318.092,24.878a1.546,1.546,0,0,0-3.092,0v2.577h3.092Z" transform="translate(-211.149 0)" fill="#19ab7c"/>
    <path id="Path_615" data-name="Path 615" d="M390.972,211.553,383.83,199.5v1.494a1.546,1.546,0,0,1-.618,1.237l-1.443,1.082-.149.1,6.947,9.729a.515.515,0,0,0,.417.216.485.485,0,0,0,.283-.087l.515-.345.825,1.232h0a.516.516,0,0,0,.438.232.485.485,0,0,0,.283-.088.516.516,0,0,0,.144-.711l-.825-1.237.165-.113a.515.515,0,0,0,.16-.69Z" transform="translate(-274.163 -167.06)" fill="#19ab7c"/>
    <path id="Path_616" data-name="Path 616" d="M93.629,214.3a.485.485,0,0,0,.283.088.516.516,0,0,0,.428-.232l.825-1.232.515.345h0a.515.515,0,0,0,.7-.129l6.957-9.729-.149-.1-1.443-1.082a1.546,1.546,0,0,1-.618-1.237v-1.494l-7.142,12.053a.515.515,0,0,0,.16.691l.165.113-.825,1.237a.516.516,0,0,0,.144.711Z" transform="translate(0 -167.052)" fill="#19ab7c"/>
    <path id="Path_617" data-name="Path 617" d="M292.181,140a.515.515,0,0,0-.515.515v3.607h0a.515.515,0,0,0,.206.412l1.443,1.082.134.088h0a1.5,1.5,0,0,0,.793.222,1.473,1.473,0,0,0,.794-.227.726.726,0,0,0,.134-.082l1.443-1.082a.515.515,0,0,0,.206-.412v-3.607A.515.515,0,0,0,296.3,140Zm2.061,1.546a1.031,1.031,0,1,1-.729.3A1.03,1.03,0,0,1,294.243,141.546Z" transform="translate(-188.845 -111.106)" fill="#19ab7c"/>
  </g>
</svg>
