<svg xmlns="http://www.w3.org/2000/svg" width="30.325" height="17.784" viewBox="0 0 30.325 17.784">
  <g id="noun-bike-1391315" transform="translate(-130.469 -151.268)">
    <path id="Path_595" data-name="Path 595" d="M171.4,157.73l3.064,6.683a.519.519,0,0,0,.943-.433l-3.023-6.593a13.84,13.84,0,0,1,2.864-.518v-1.731a2.067,2.067,0,0,0-.8-1.289,11.362,11.362,0,0,0-2.023-1.434,24.937,24.937,0,0,0-2.249-1.147s.042,5.126.032,5.138-.032.03-.048.043-.069.06-.138.117c-.136.11-.384.308-.847.669a21.676,21.676,0,0,1-1.9,1.333.526.526,0,0,1-.269.073.51.51,0,0,1-.261-.07l-3.03-1.771v0a.512.512,0,0,1-.155-.141l-3.534.229a.521.521,0,0,1-.539-.639.666.666,0,0,0,0-.075.823.823,0,0,0-.369-.667,4.438,4.438,0,0,0-2.7-.592c-2.029,0-4.339.031-5.117.061-.216.009-.392.017-.532.024l.06.976c1.193.056,5.257.478,7.818,3.242a12.446,12.446,0,0,1,.871,1.05.488.488,0,0,1,.157.159.474.474,0,0,1,.05.132,10.161,10.161,0,0,1,1.888,5.147h5.87a11.015,11.015,0,0,1-.178-1.946,6.164,6.164,0,0,1,1.562-4.434,7.734,7.734,0,0,1,2.528-1.6Z" transform="translate(-18.899)" fill="#7e8397"/>
    <path id="Path_596" data-name="Path 596" d="M210.22,300.911l5.681,1.538a9.118,9.118,0,0,0-1.5-4.121Z" transform="translate(-74.243 -136.903)" fill="#7e8397"/>
    <path id="Path_597" data-name="Path 597" d="M351.009,204.884c.321-.217.774-.533,1.3-.939.407-.315.647-.507.782-.616v-1.005h-2.426c-1.82.026-2.314.814-2.489,1.21l2.59,1.514.248-.164Z" transform="translate(-202.666 -47.531)" fill="#7e8397"/>
    <path id="Path_598" data-name="Path 598" d="M138.018,275.742A3.812,3.812,0,1,1,137,269.616a.518.518,0,1,0,.455-.931,4.853,4.853,0,1,0,1.3,7.793.52.52,0,0,0-.736-.736Z" transform="translate(0 -108.849)" fill="#7e8397"/>
    <path id="Path_599" data-name="Path 599" d="M433.854,268.2a.519.519,0,1,0,0,1.038,3.813,3.813,0,1,1-2.837,1.263.519.519,0,0,0-.771-.7,4.853,4.853,0,1,0,3.608-1.606Z" transform="translate(-277.911 -108.856)" fill="#7e8397"/>
  </g>
</svg>
