<svg xmlns="http://www.w3.org/2000/svg" width="68" height="68" viewBox="0 0 68 68">
  <g id="Capture_Circle" data-name="Capture Circle" transform="translate(-159.5 -444.5)">
    <circle id="circle" cx="34" cy="34" r="34" transform="translate(159.5 444.5)" fill="#fff" opacity="0.2"/>
    <circle id="circle-2" data-name="circle" cx="30" cy="30" r="30" transform="translate(163.5 448.5)" fill="#fff"/>
    <path id="camera" d="M20.716,6.782V18.434a1.943,1.943,0,0,1-1.942,1.942H1.942A1.943,1.943,0,0,1,0,18.434V6.782A1.943,1.943,0,0,1,1.942,4.84H5.5L6,3.508A1.939,1.939,0,0,1,7.817,2.25h5.078a1.939,1.939,0,0,1,1.817,1.258l.5,1.331h3.561A1.943,1.943,0,0,1,20.716,6.782Zm-5.5,5.826a4.855,4.855,0,1,0-4.855,4.855A4.859,4.859,0,0,0,15.213,12.608Zm-1.295,0a3.561,3.561,0,1,1-3.561-3.561A3.566,3.566,0,0,1,13.919,12.608Z" transform="translate(183.5 467.25)" fill="#902888"/>
  </g>
</svg>
