<svg xmlns="http://www.w3.org/2000/svg" width="24" height="21.927" viewBox="0 0 24 21.927">
  <g id="cooking_s" transform="translate(-4744 -1202)">
    <path id="Path_581" data-name="Path 581" d="M110.085,503.72H95.465a.678.678,0,0,0,0,1.355h14.62a.678.678,0,0,0,0-1.355Z" transform="translate(4650.26 718.851)" fill="#19ab7c"/>
    <path id="Path_582" data-name="Path 582" d="M88.06,190.918a.492.492,0,0,0-.493-.483H70.5a.493.493,0,0,0-.493.485l0,.068c0,.044-.005.089-.005.134,0,5.643,4.053,10.234,9.035,10.234s9.035-4.591,9.035-10.234c0-.046,0-.092,0-.136Z" transform="translate(4674.001 1018.794)" fill="#19ab7c"/>
    <path id="Path_583" data-name="Path 583" d="M521.5,190.43h-3.778a.492.492,0,0,0-.493.493v2.061a.493.493,0,1,0,.986,0v-1.568H521.5a.493.493,0,0,0,0-.986Z" transform="translate(4246.012 1018.711)" fill="#19ab7c"/>
    <path id="Path_584" data-name="Path 584" d="M206.595,65.3a.493.493,0,0,0,.493-.493V61.936a.493.493,0,0,0-.986,0v2.875A.493.493,0,0,0,206.595,65.3Z" transform="translate(4543.735 1142.13)" fill="#19ab7c"/>
    <path id="Path_585" data-name="Path 585" d="M272.711,29.628a.493.493,0,0,0,.493-.493V24.687a.493.493,0,1,0-.986,0v4.448a.493.493,0,0,0,.493.493Z" transform="translate(4480.454 1177.806)" fill="#19ab7c"/>
    <path id="Path_586" data-name="Path 586" d="M338.825,65.3a.492.492,0,0,0,.493-.493V61.936a.493.493,0,1,0-.986,0v2.875A.493.493,0,0,0,338.825,65.3Z" transform="translate(4417.176 1142.13)" fill="#19ab7c"/>
  </g>
</svg>
