<svg xmlns="http://www.w3.org/2000/svg" width="25" height="25.144" viewBox="0 0 25 25.144">
  <g id="cycling_s" transform="translate(-112.854 -42.328)">
    <path id="Path_557" data-name="Path 557" d="M376.271,42.608a1.9,1.9,0,1,1-2.607.624,1.9,1.9,0,0,1,2.607-.624" transform="translate(-246.677)" fill="#19ab7c"/>
    <path id="Path_558" data-name="Path 558" d="M133.29,109.179v-4.2a2.394,2.394,0,0,0-.714-1.686.786.786,0,0,0-.31-.554c-1.162-.859-2.229-1.844-3.379-2.711-1.138-.9-2.283-1.776-3.4-2.7a1.429,1.429,0,0,0-.168-.118,1.3,1.3,0,0,0-1.478.117c-.024.017-.166.153-.219.206h0a5.063,5.063,0,0,0-.491.65c-.136.189-.794,1.273-1.494,2.441H123.4a.525.525,0,0,1,0,1.051l-4.792.006h0a.525.525,0,0,0,0,1.051h1.757c-.324.515-.823,1.373-.828,1.393h0a1.3,1.3,0,0,0,.35,1.5c.5.424,1.009.828,1.513,1.24l-1.513,2.671a5.161,5.161,0,1,0,.924.505H120.8l1.416-2.5,3.106,2.512s-1.258,3.949-1.537,4.914h0a.8.8,0,0,0,.159.738.79.79,0,0,0,1.313-.167c.439-.9,3.907-8.368,3.907-8.368h3.072v2.016a5.079,5.079,0,1,0,1.049,0Zm-13,1.77a4,4,0,1,1-2.324-.746,3.856,3.856,0,0,1,1.4.25L117.4,113.92l.908.519,1.977-3.491Zm6.213-3.032q-1.373-1.21-2.746-2.413,1.668.441,3.342.862Zm3.177-1.8.045-.095h0a1.276,1.276,0,0,0,.062-.16,1.13,1.13,0,0,0-.739-1.41l-.072-.022c-1.287-.4-2.572-.805-3.86-1.2l.007-.012,1.338-2.079a.3.3,0,0,0,.072-.092l1.146.722c1.2.793,2.491,1.469,3.689,2.272h0a.783.783,0,0,0,.593.114,1.349,1.349,0,0,1,.292.828v1.139Zm3.109,12.188h0a4.021,4.021,0,0,1-3.442-1.849,4.048,4.048,0,0,1,2.9-6.212V114.3h1.046V110.24a4.049,4.049,0,0,1-.5,8.065Z" transform="translate(0 -51.922)" fill="#19ab7c"/>
    <path id="Path_559" data-name="Path 559" d="M115.465,253.865h2.882a.5.5,0,1,0,0-1.006h-2.882a.5.5,0,0,0,0,1.006Z" transform="translate(-2 -199.397)" fill="#19ab7c"/>
  </g>
</svg>
