<svg xmlns="http://www.w3.org/2000/svg" width="23.98" height="21.671" viewBox="0 0 23.98 21.671">
  <g id="noun-driving-4303714" transform="translate(-102.834 -56.711)">
    <path id="Path_592" data-name="Path 592" d="M377.205,105.75a2.388,2.388,0,1,0,2.283,2.386A2.308,2.308,0,0,0,377.205,105.75Z" transform="translate(-259.307 -46.26)" fill="#7e8397" fill-rule="evenodd"/>
    <path id="Path_593" data-name="Path 593" d="M343.587,194.35l-2.115.988a.942.942,0,0,0-.589.736l-.174.829c.171,0,.343.006.513.006,2.807,0,5.781-.212,7.852-.371l-.1-.463a.938.938,0,0,0-.589-.736l-2.115-.988a2.816,2.816,0,0,1-2.683,0Z" transform="translate(-227.146 -131.081)" fill="#7e8397"/>
    <path id="Path_594" data-name="Path 594" d="M111.44,73.1H118.2a1.531,1.531,0,0,1,1.362,1.47H110.08a1.53,1.53,0,0,1,1.36-1.47Zm12.6-3.49c.56-.005.8.173.887.45.159.492.345,1.466-.531,1.788a20.319,20.319,0,0,1-3.037.571c-.774.116-.968-.34-.7-1.021.5-1.266,1.636-1.533,2.7-1.717a4.407,4.407,0,0,1,.677-.071Zm-18.432,0a4.452,4.452,0,0,1,.675.07c1.064.184,2.2.45,2.7,1.717.269.682.076,1.138-.7,1.021a20.328,20.328,0,0,1-3.034-.571c-.875-.321-.694-1.295-.533-1.788.09-.277.327-.454.889-.449Zm9.215-11.3a24.568,24.568,0,0,1,5.259.321,1.286,1.286,0,0,1,.773.8l1.9,6.428c-1.63.124-4.924.414-7.934.414s-6.3-.289-7.935-.414l1.9-6.428a1.282,1.282,0,0,1,.773-.8,24.6,24.6,0,0,1,5.26-.321Zm0-1.6a24.065,24.065,0,0,0-5.673.377,2.711,2.711,0,0,0-1.865,1.8L105.3,65.257l-1.538,0c-.62,0-.933.295-.933.8A1.883,1.883,0,0,0,104,67.787l-.228.406a3.911,3.911,0,0,0-.519,1.724v4.449a1.772,1.772,0,0,0,1.114,1.606v1.678a.729.729,0,0,0,.731.733h2.082a.731.731,0,0,0,.733-.733V76.073h13.817v1.575a.731.731,0,0,0,.735.733h2.08a.73.73,0,0,0,.732-.733V75.971a1.771,1.771,0,0,0,1.116-1.606V69.916a3.912,3.912,0,0,0-.521-1.724l-.228-.406a1.884,1.884,0,0,0,1.169-1.734c0-.5-.314-.8-.935-.8l-1.541,0-1.976-6.365a2.713,2.713,0,0,0-1.865-1.8,24.093,24.093,0,0,0-5.674-.376Z" transform="translate(0 0)" fill="#7e8397" fill-rule="evenodd"/>
  </g>
</svg>
