<svg xmlns="http://www.w3.org/2000/svg" width="18.555" height="18.778" viewBox="0 0 18.555 18.778">
  <g id="Event-D" transform="translate(-0.188)">
    <g id="Group_216" data-name="Group 216" transform="translate(0.188 0)">
      <path id="Path_29707" data-name="Path 29707" d="M18.74,2.936a1.284,1.284,0,0,0-1.284-1.284H15.285V.524A.524.524,0,0,0,14.762,0H13.63a.525.525,0,0,0-.524.524V1.653H5.9V.524A.524.524,0,0,0,5.373,0H4.317a.524.524,0,0,0-.524.524V1.653H1.472A1.284,1.284,0,0,0,.188,2.937V7.512H.864v9.946a1.319,1.319,0,0,0,1.32,1.32H16.67a1.319,1.319,0,0,0,1.32-1.32V7.511h.752l0-4.575ZM15.886,15.279a1.319,1.319,0,0,1-1.32,1.32H4.363a1.319,1.319,0,0,1-1.32-1.32V7.511H15.886v7.768Z" transform="translate(-0.188 0)" fill="#7e8397"/>
      <rect id="Rectangle_17307" data-name="Rectangle 17307" width="2.103" height="2.179" transform="translate(4.657 8.938)" fill="#7e8397"/>
      <rect id="Rectangle_17308" data-name="Rectangle 17308" width="2.103" height="2.179" transform="translate(8.263 8.938)" fill="#7e8397"/>
      <rect id="Rectangle_17309" data-name="Rectangle 17309" width="2.103" height="2.179" transform="translate(11.867 8.938)" fill="#7e8397"/>
      <rect id="Rectangle_17310" data-name="Rectangle 17310" width="2.103" height="2.178" transform="translate(4.657 12.768)" fill="#7e8397"/>
      <rect id="Rectangle_17311" data-name="Rectangle 17311" width="2.103" height="2.178" transform="translate(8.263 12.768)" fill="#7e8397"/>
      <rect id="Rectangle_17312" data-name="Rectangle 17312" width="2.103" height="2.178" transform="translate(11.867 12.768)" fill="#7e8397"/>
    </g>
  </g>
</svg>
