<svg xmlns="http://www.w3.org/2000/svg" width="24.342" height="24.341" viewBox="0 0 24.342 24.341">
  <g id="noun-art-3458648" transform="translate(-146.56 -76.562)">
    <path id="Path_602" data-name="Path 602" d="M339.06,76.562h1.309v1.309H339.06Z" transform="translate(-180.984)" fill="#7e8397"/>
    <path id="Path_603" data-name="Path 603" d="M339.06,111.56h1.309v.262H339.06Z" transform="translate(-180.984 -32.904)" fill="#7e8397"/>
    <path id="Path_604" data-name="Path 604" d="M290.937,391.56l-1.832,5.5h1.266l1.832-5.5Z" transform="translate(-134.017 -296.153)" fill="#7e8397"/>
    <path id="Path_605" data-name="Path 605" d="M157.684,129.06H146.56v13.872H170.9V129.06Zm-1.047,1.309a1.441,1.441,0,1,1-1.018.422,1.44,1.44,0,0,1,1.018-.422Zm7,2.279a.392.392,0,0,1,.541-.125.388.388,0,0,1,.119.12s0,0,.006.005l5.235,8.376c0,.007,0,.015.007.022a.387.387,0,0,1,.047.156c0,.008,0,.015,0,.023v.006a.385.385,0,0,1-.045.174c0,.005,0,.011,0,.017s-.017.014-.023.024h0a.4.4,0,0,1-.32.179H148.262a.392.392,0,0,1-.333-.6l5.235-8.376a.392.392,0,0,1,.541-.125.387.387,0,0,1,.119.12s0,0,.006.005l2.285,3.655,2.285-3.655a.392.392,0,0,1,.541-.125.387.387,0,0,1,.119.12s0,0,.006.005l2.285,3.655Z" transform="translate(0 -49.357)" fill="#7e8397"/>
    <path id="Path_606" data-name="Path 606" d="M313.98,208.33l2.155,3.447.217.348h4.309l-1.909-3.054-.231-.37-.231-.371-2.155-3.447Z" transform="translate(-157.404 -120.644)" fill="#7e8397"/>
    <path id="Path_607" data-name="Path 607" d="M359.611,391.56h-.5l1.832,5.5h1.266l-1.832-5.5Z" transform="translate(-199.833 -296.153)" fill="#7e8397"/>
    <path id="Path_608" data-name="Path 608" d="M339.06,374.327h1.309v-.262H339.06Z" transform="translate(-180.984 -279.705)" fill="#7e8397"/>
    <path id="Path_609" data-name="Path 609" d="M408.163,212.132l-4.526-7.242-2.155,3.447,2.372,3.8Z" transform="translate(-239.671 -120.651)" fill="#7e8397"/>
    <path id="Path_610" data-name="Path 610" d="M193.991,209.068l-.231-.37-.231-.371-2.155-3.447-4.526,7.242H195.9Z" transform="translate(-37.877 -120.641)" fill="#7e8397"/>
    <path id="Path_611" data-name="Path 611" d="M305.373,164.716a.654.654,0,1,1-.654-.654.654.654,0,0,1,.654.654" transform="translate(-148.081 -82.265)" fill="#7e8397"/>
  </g>
</svg>
