<svg xmlns="http://www.w3.org/2000/svg" width="23.609" height="13.928" viewBox="0 0 23.609 13.928">
  <path id="Path_618" data-name="Path 618" d="M106.762,128.306c-1.541-3.728-4.672-5.939-7.008-4.97h-.025a10.073,10.073,0,0,1-3.9.82h-.05a9.981,9.981,0,0,1-3.9-.82h-.025c-2.336-.969-5.467,1.267-7.008,4.97s-.919,7.53,1.417,8.5c1.367.572,2.982.05,4.424-1.218a7.621,7.621,0,0,1,5-1.938h.249a7.5,7.5,0,0,1,5,1.938c1.441,1.267,3.057,1.789,4.424,1.218,2.336-.969,2.958-4.771,1.417-8.5Zm-14.389,2.237H91.354v1.019a1.218,1.218,0,0,1-2.436,0v-1.019H87.9a1.218,1.218,0,1,1,0-2.436h1.019v-1.019a1.218,1.218,0,1,1,2.436,0v1.019h1.019a1.218,1.218,0,1,1,0,2.435Zm9.1-4.672a1.218,1.218,0,1,1-1.218,1.218A1.22,1.22,0,0,1,101.469,125.871Zm-2.237,4.647a1.218,1.218,0,1,1,1.218-1.218A1.22,1.22,0,0,1,99.232,130.518Zm2.237,2.237a1.218,1.218,0,1,1,1.218-1.218A1.236,1.236,0,0,1,101.469,132.755Zm2.212-2.237A1.218,1.218,0,1,1,104.9,129.3,1.2,1.2,0,0,1,103.68,130.518Z" transform="translate(-83.998 -123.108)" fill="#7e8397"/>
</svg>
