<svg id="icon" xmlns="http://www.w3.org/2000/svg" width="19.545" height="20" viewBox="0 0 19.545 20">
  <path id="Path_29680" data-name="Path 29680" d="M4.6,8.137a5.9,5.9,0,0,1,5.612-4.046,5.781,5.781,0,0,1,3.682,1.318L16.8,2.5A9.992,9.992,0,0,0,1.24,5.542Z" transform="translate(-0.207)" fill="#ea4335"/>
  <path id="Path_29681" data-name="Path 29681" d="M13.573,17.388a6.163,6.163,0,0,1-3.367.9,5.9,5.9,0,0,1-5.6-4.019L1.237,16.824a9.971,9.971,0,0,0,8.969,5.554,9.525,9.525,0,0,0,6.528-2.5Z" transform="translate(-0.206 -2.378)" fill="#34a853"/>
  <path id="Path_29682" data-name="Path 29682" d="M18.528,19.136a9.961,9.961,0,0,0,3.017-7.5,8.293,8.293,0,0,0-.227-1.818H12v3.864h5.364a4.507,4.507,0,0,1-2,2.965Z" transform="translate(-2 -1.636)" fill="#4a90e2"/>
  <path id="Path_29683" data-name="Path 29683" d="M4.4,13a5.979,5.979,0,0,1-.009-3.753L1.033,6.65a10.117,10.117,0,0,0,0,8.9Z" transform="translate(0 -1.108)" fill="#fbbc05"/>
</svg>
