<svg xmlns="http://www.w3.org/2000/svg" width="26.97" height="25.619" viewBox="0 0 26.97 25.619">
  <g id="hangout_s" transform="translate(-84.274 -28)">
    <path id="Path_587" data-name="Path 587" d="M336.126,28a.68.68,0,0,0-.685.685v2.054a.685.685,0,1,0,1.369,0V28.685A.716.716,0,0,0,336.126,28Z" transform="translate(-238.353)" fill="#19ab7c"/>
    <path id="Path_588" data-name="Path 588" d="M240.484,71.22a.638.638,0,0,0,.948,0,.667.667,0,0,0,0-.948L239.983,68.8a.67.67,0,0,0-.948.948Z" transform="translate(-146.639 -38.69)" fill="#19ab7c"/>
    <path id="Path_589" data-name="Path 589" d="M402.469,70.842a.659.659,0,0,0,.474-.211l1.449-1.449a.67.67,0,0,0-.948-.948l-1.449,1.449a.668.668,0,0,0,0,.948A.542.542,0,0,0,402.469,70.842Z" transform="translate(-301.242 -38.154)" fill="#19ab7c"/>
    <path id="Path_590" data-name="Path 590" d="M95.4,144.038l-6.373-1.9a.732.732,0,0,0-.869.369l-2,4.108a4.862,4.862,0,0,0-.316,3.634,4.811,4.811,0,0,0,2.792,3.055l-1.422,4.767a.378.378,0,0,1-.421.263L84.709,158a.378.378,0,0,0-.158.737l5.61,1.659a.377.377,0,0,0,.474-.263.352.352,0,0,0-.211-.448l-1.923-.817a.363.363,0,0,1-.211-.448l1.4-4.767a4.911,4.911,0,0,0,4-1.053,4.973,4.973,0,0,0,1.712-3.239l.527-4.53a.739.739,0,0,0-.527-.79Zm-1,4.53a4.436,4.436,0,0,0-1.791-1.291c-2.08-.816-3.16.658-5.215-.711l1.633-3.292,5.794,1.712Z" transform="translate(0 -106.841)" fill="#19ab7c"/>
    <path id="Path_591" data-name="Path 591" d="M378.56,158.556l-2.08.342a.378.378,0,0,1-.421-.263l-1.422-4.767a4.805,4.805,0,0,0,2.792-3.055,4.992,4.992,0,0,0-.316-3.634l-2.028-4.108a.732.732,0,0,0-.869-.369l-6.373,1.9a.748.748,0,0,0-.527.79l.527,4.53a5.035,5.035,0,0,0,1.712,3.239,4.886,4.886,0,0,0,4,1.053l1.4,4.767a.352.352,0,0,1-.211.448l-1.923.843a.363.363,0,0,0-.211.448.377.377,0,0,0,.474.263l5.61-1.659a.377.377,0,0,0,.263-.474.319.319,0,0,0-.395-.29Zm-7.9-10.719a4.374,4.374,0,0,0-1.791,1.291l-.421-3.582,5.794-1.712,1.633,3.292C373.845,148.5,372.766,146.994,370.659,147.837Z" transform="translate(-267.724 -107.373)" fill="#19ab7c"/>
  </g>
</svg>
