<svg xmlns="http://www.w3.org/2000/svg" width="18.967" height="18.167" viewBox="0 0 18.967 18.167">
  <path id="Home-S" d="M18.634,14.021,16.26,12.087V8.994a.633.633,0,0,0-.632-.632H14.135a.633.633,0,0,0-.632.632V9.84L10.333,7.256a1.392,1.392,0,0,0-1.7,0l-8.3,6.767c-.377.307-.355.575-.307.707s.2.353.683.353H1.845v8.9a1.151,1.151,0,0,0,1.149,1.152h3.59A1.124,1.124,0,0,0,7.7,23.981V20.332a.624.624,0,0,1,.6-.6h2.412a.574.574,0,0,1,.546.6v3.649a1.18,1.18,0,0,0,1.177,1.152h3.532a1.152,1.152,0,0,0,1.149-1.152v-8.9h1.137c.485,0,.636-.221.683-.353S19.011,14.329,18.634,14.021Z" transform="translate(0 -6.966)" fill="#7e8397"/>
</svg>
