<svg xmlns="http://www.w3.org/2000/svg" xmlns:xlink="http://www.w3.org/1999/xlink" width="197.113" height="236.813" viewBox="0 0 197.113 236.813">
  <defs>
    <linearGradient id="linear-gradient" x1="0.563" y1="0.787" x2="0.444" y2="0.206" gradientUnits="objectBoundingBox">
      <stop offset="0" stop-color="#1f3a65"/>
      <stop offset="1" stop-color="#294a7a"/>
    </linearGradient>
  </defs>
  <g id="OBJECTS" transform="translate(-83.332 -57.512)">
    <g id="Group_64" data-name="Group 64" transform="translate(83.332 57.512)">
      <g id="Group_32" data-name="Group 32">
        <g id="Group_31" data-name="Group 31">
          <path id="Path_238" data-name="Path 238" d="M280.338,173.96c-.059,1.064-.177,2.188-.3,3.252-.059.532-.118,1.064-.177,1.656h0A73.4,73.4,0,0,1,272.71,203.7h0a18.164,18.164,0,0,1-1.005,1.833,49.542,49.542,0,0,1-10.052,12.832,8.648,8.648,0,0,1-1.124.946,45.007,45.007,0,0,1-12.181,7.391c-.532.237-1.064.414-1.656.65h0c-10.525,3.9-23.771,4.73-39.973,1.183h-.059a16.209,16.209,0,0,0-1.656-.3c-15.019-2.661-26.2,3.311-38.081,9.4-.414.237-.887.414-1.3.65-14.31,7.273-29.861,14.31-54.519,6.209-38.021-12.595-30.334-55.347-16.084-85.859.237-.473.473-.946.71-1.478a146.119,146.119,0,0,1,9.579-16.912,72.457,72.457,0,0,0,6.327-11.945c.237-.532.414-1.064.65-1.6,8.456-21.76,7.746-45.235,22.825-54.4.355-.237.769-.473,1.183-.71a26.115,26.115,0,0,1,7.332-2.543,26.565,26.565,0,0,1,19.218,2.957c.532.3,1.005.591,1.478.887,11.531,7.391,19.454,22.588,26.846,34.592a9.723,9.723,0,0,0,.828,1.3c5.854,9.4,11.471,16.557,18.449,15.906,1.419-.118,2.838-.237,4.257-.3.473,0,1.005-.059,1.478-.059a83.066,83.066,0,0,1,36.366,7.273c.473.237.887.414,1.36.65,10.111,4.967,18.449,12.24,22.943,21.879.177.414.414.828.591,1.3A40.729,40.729,0,0,1,280.338,173.96Z" transform="translate(-83.332 -61.973)" fill="#2c2a40" opacity="0.1"/>
          <path id="Path_239" data-name="Path 239" d="M319.424,105.815a34.663,34.663,0,0,1-4.435,1.774,14.81,14.81,0,0,1-1.537.414c-25.545,6.5-46.655-25.367-48.428-40.5-1.774-15.256,17.917-10.7,36.9-1.774.591.3,1.183.532,1.774.828s1.242.591,1.833.887C325.869,77.787,347.57,92.1,319.424,105.815Z" transform="translate(-157.541 -57.512)" fill="#2c2a40" opacity="0.1"/>
          <path id="Path_240" data-name="Path 240" d="M226.261,268.765h0c-.591-.118-1.183-.237-1.715-.355-3.9-9.4-9.579-18.863-17.266-22.292-5.263-2.365-11.058-1.6-17.148,2.188-17.976,11.117-31.813,17.325-41.215,11.767-8.929-5.322-12.418-21.524-10.762-49.552,1.064-17.739-1.3-31.813-7.155-41.924.237-.532.414-1.064.65-1.6,6.386,10.407,9.047,25.013,7.864,43.639-1.656,27.437,1.656,43.225,10.052,48.31,9.224,5.558,24.539-2.365,39.736-11.767,6.564-4.021,12.772-4.79,18.449-2.247C216.267,248.66,222.24,258.89,226.261,268.765Z" transform="translate(-102.813 -102.259)" fill="#fff" opacity="0.62"/>
          <path id="Path_241" data-name="Path 241" d="M175.063,299c-.414.236-.887.414-1.3.65a15.386,15.386,0,0,0-4.908-7.983c-3.607-2.838-8.692-3.193-15.2-1.064-14.369,4.73-25.308,4.317-32.581-1.3-8.1-6.268-11.59-19.159-10.289-38.14.946-13.9-2.779-23.948-7.687-30.985.237-.473.473-.946.71-1.478,5.322,7.332,9.4,17.8,8.4,32.581-1.242,18.508,2.01,30.985,9.757,36.957,6.859,5.322,17.385,5.677,31.28,1.123,6.977-2.306,12.536-1.892,16.5,1.3A16.43,16.43,0,0,1,175.063,299Z" transform="translate(-91.411 -123.388)" fill="#fff" opacity="0.62"/>
          <path id="Path_242" data-name="Path 242" d="M333.155,221.682c-2.365,17.858.355,31.754,7.983,41.333a32.616,32.616,0,0,0,8.456,7.451c-.532.237-1.064.414-1.656.65h0a34.944,34.944,0,0,1-7.864-7.155c-7.924-9.875-10.7-24.126-8.338-42.4,3.134-23.712,13.009-37.9,21.819-46.063.473.237.887.414,1.36.65C346.223,183.956,336.289,197.97,333.155,221.682Z" transform="translate(-184.518 -105.732)" fill="#fff" opacity="0.62"/>
          <path id="Path_243" data-name="Path 243" d="M367.442,243.12c-2.01,13.541-.355,23.771,5.026,30.334a19.1,19.1,0,0,0,4.376,3.962,8.645,8.645,0,0,1-1.124.946,19.961,19.961,0,0,1-4.376-4.08c-5.617-6.918-7.391-17.444-5.322-31.458,2.129-14.192,11.058-24.362,25.84-29.625.177.414.414.828.591,1.3C377.967,219.645,369.511,229.284,367.442,243.12Z" transform="translate(-198.522 -121.14)" fill="#fff" opacity="0.62"/>
          <path id="Path_244" data-name="Path 244" d="M409.017,252.4c-.059.532-.118,1.064-.177,1.656h0a14.371,14.371,0,0,0-6.564,6.268c-2.9,5.558-2.07,12.772-.591,18.567h0a18.162,18.162,0,0,1-1.005,1.833c-1.774-6.209-3.016-14.546.355-20.992A15.873,15.873,0,0,1,409.017,252.4Z" transform="translate(-212.306 -137.16)" fill="#fff" opacity="0.62"/>
          <path id="Path_245" data-name="Path 245" d="M251.769,126.545a70.09,70.09,0,0,1-3.37,10.821c-5.677,13.718-15.019,20.932-27.2,20.932h-1.419c-16.557-.769-26.018-26.55-35.242-51.444-4.494-12.181-8.87-24.066-13.837-32.345.355-.237.769-.473,1.183-.71,5.085,8.456,9.4,20.341,13.955,32.581,9.047,24.48,18.39,49.789,34,50.5,19.75.887,27.5-17.739,30.453-30.275A12.865,12.865,0,0,0,251.769,126.545Z" transform="translate(-119.038 -64.169)" fill="#fff" opacity="0.62"/>
          <path id="Path_246" data-name="Path 246" d="M246.752,111.239a20.373,20.373,0,0,1-3.9.355,18.584,18.584,0,0,1-9.461-2.484c-8.515-4.849-13.837-16.557-15.788-34.71.532.3,1.005.591,1.478.887,2.01,17.089,7.037,28.028,15.019,32.581a18.049,18.049,0,0,0,11.826,2.01C246.22,110.411,246.515,110.825,246.752,111.239Z" transform="translate(-138.205 -64.414)" fill="#fff" opacity="0.62"/>
          <path id="Path_247" data-name="Path 247" d="M340.568,113.306a14.812,14.812,0,0,1-1.537.414c-3.666-3.844-7.687-11.59-8.633-27.2A53.723,53.723,0,0,0,327.5,71.5c.591.3,1.183.532,1.774.828A57.067,57.067,0,0,1,331.817,86.4C332.763,102.485,336.961,109.876,340.568,113.306Z" transform="translate(-183.12 -63.229)" fill="#fff" opacity="0.62"/>
        </g>
        <ellipse id="Ellipse_1" data-name="Ellipse 1" cx="56.825" cy="5.736" rx="56.825" ry="5.736" transform="translate(40.486 225.342)" fill="#2c2a40" opacity="0.1"/>
      </g>
      <g id="Group_63" data-name="Group 63" transform="translate(21.24 10.045)">
        <g id="Group_49" data-name="Group 49">
          <g id="Group_35" data-name="Group 35" transform="translate(2.745 69.793)">
            <path id="Path_248" data-name="Path 248" d="M132.964,211.411s1.005.65,2.779,1.715c5.854,3.37,20.1,10.644,35.774,10.525a12.361,12.361,0,0,0,1.478-.059,15.584,15.584,0,0,0,1.656-.118c1.478-.118,3.016-.3,4.494-.532l1.951-15.078-5.2.237-1.419.059-.828.059-13.778.65-20.814-6.623L136.1,201.3C136.157,201.418,132.432,204.02,132.964,211.411Z" transform="translate(-127.579 -196.114)" fill="#0e8c5e"/>
            <path id="Path_249" data-name="Path 249" d="M132.964,211.493s1.005.65,2.779,1.715a27.475,27.475,0,0,1,3.37-10.762l-2.957-.946S132.432,204.1,132.964,211.493Z" transform="translate(-127.579 -196.196)" fill="#fafcff" stroke="#0c6bf4" stroke-miterlimit="10" stroke-width="1.181"/>
            <path id="Path_250" data-name="Path 250" d="M200.671,228.229a15.584,15.584,0,0,0,1.656-.118c1.478-.118,3.016-.3,4.494-.532l1.951-15.078-5.2.236-1.419.059c-.355,1.478-.71,3.134-1.005,4.849A66,66,0,0,0,200.671,228.229Z" transform="translate(-155.254 -200.691)" fill="#0a7a4d"/>
            <g id="Group_34" data-name="Group 34" transform="translate(0.794 0)">
              <rect id="Rectangle_2021" data-name="Rectangle 2021" width="18.863" height="25.19" transform="matrix(0.987, -0.158, 0.158, 0.987, 0, 2.982)" fill="#bac1cc"/>
              <rect id="Rectangle_2022" data-name="Rectangle 2022" width="18.863" height="25.19" transform="translate(1.871 1.342)" fill="#edf1f9"/>
              <g id="Group_33" data-name="Group 33" transform="translate(4.295 4.772)">
                <path id="Path_251" data-name="Path 251" d="M136.284,202.492a1.892,1.892,0,1,1-1.892-1.892A1.868,1.868,0,0,1,136.284,202.492Z" transform="translate(-132.5 -200.6)" fill="#f4d242"/>
                <path id="Path_252" data-name="Path 252" d="M143.617,213.164H133.032a.53.53,0,0,1-.532-.532h0a.53.53,0,0,1,.532-.532h10.584a.53.53,0,0,1,.532.532h0C144.208,212.869,143.971,213.164,143.617,213.164Z" transform="translate(-132.5 -205.3)" fill="#9825b8"/>
                <path id="Path_253" data-name="Path 253" d="M146.141,218.064H133.132a.53.53,0,0,1-.532-.532h0a.53.53,0,0,1,.532-.532h13.009a.53.53,0,0,1,.532.532h0C146.732,217.828,146.437,218.064,146.141,218.064Z" transform="translate(-132.541 -207.302)" fill="#9825b8"/>
                <path id="Path_254" data-name="Path 254" d="M146.141,222.564H133.132a.53.53,0,0,1-.532-.532h0a.53.53,0,0,1,.532-.532h13.009a.53.53,0,0,1,.532.532h0C146.732,222.328,146.437,222.564,146.141,222.564Z" transform="translate(-132.541 -209.142)" fill="#9825b8"/>
                <path id="Path_255" data-name="Path 255" d="M146.141,226.864H133.132a.53.53,0,0,1-.532-.532h0a.53.53,0,0,1,.532-.532h13.009a.53.53,0,0,1,.532.532h0C146.732,226.628,146.437,226.864,146.141,226.864Z" transform="translate(-132.541 -210.899)" fill="#9825b8"/>
              </g>
            </g>
            <path id="Path_256" data-name="Path 256" d="M125.908,210.845s4.021-.414,4.139.65c.118,1.123-2.424,1.419-2.424,1.419s3.725.177,3.844,1.005-3.844,1.6-3.844,1.6,3.193,0,3.252.769c.059.828-3.193,1.36-3.193,1.36s2.484.118,2.543.828-4.08,1.951-4.908,1.183c-.828-.828.3-2.306-.65-3.252a2.406,2.406,0,0,1-.414-3.016C124.844,212.8,123.129,210.845,125.908,210.845Z" transform="translate(-123.894 -199.983)" fill="#feb19e"/>
          </g>
          <g id="Group_37" data-name="Group 37" transform="translate(0 99.459)">
            <g id="Group_36" data-name="Group 36" transform="translate(0 44.032)">
              <path id="Path_257" data-name="Path 257" d="M158.48,326.469l-10.88-3.725,1.3-3.725a2.778,2.778,0,0,1,3.489-1.715l5.677,1.951a2.778,2.778,0,0,1,1.715,3.489Zm-9.047-4.612,8.16,2.779.828-2.365a1.3,1.3,0,0,0-.828-1.656l-5.677-1.951a1.3,1.3,0,0,0-1.656.828Z" transform="translate(-130.837 -317.164)" fill="#593131"/>
              <path id="Path_258" data-name="Path 258" d="M145.121,351.273l-23-7.864a4.3,4.3,0,0,1-2.661-5.381l4.908-14.428,31.044,10.585L150.5,348.613A4.229,4.229,0,0,1,145.121,351.273Z" transform="translate(-119.252 -319.794)" fill="#593131"/>
              <path id="Path_259" data-name="Path 259" d="M156.287,333.818,141.5,332.044a4.329,4.329,0,0,1-1.478-.473l-12.772-7.628a1.632,1.632,0,0,1-.71-1.892l1.242-3.607a1.588,1.588,0,0,1,2.01-1.005l28.383,9.7a1.588,1.588,0,0,1,1.005,2.01l-1.242,3.607A1.517,1.517,0,0,1,156.287,333.818Z" transform="translate(-122.199 -317.24)" fill="#754343"/>
            </g>
            <path id="Path_260" data-name="Path 260" d="M162.282,307.68s2.01,5.617.887,6.445-3.252-2.247-3.9-1.064,1.478,3.43-1.419,3.607a4.816,4.816,0,0,1-5.263-5.144c.3-3.075,2.779-5.026,2.779-5.972l.591-1.951,6.741,2.247Z" transform="translate(-132.865 -267.589)" fill="#feb19e"/>
            <path id="Path_261" data-name="Path 261" d="M156.5,280.426l8.1,2.6,1.715-3.607v-.059l8.042-16.852,8.515-2.07,3.666-.887.591-.118,4.317-1.064,3.548-.887L190.5,242.7a38.309,38.309,0,0,0-3.9.887c-.828.236-1.774.532-2.838.828-.237.118-.532.177-.828.3-.591.177-1.183.414-1.774.65a43.313,43.313,0,0,0-14.251,8.811c-6.5,6.386-9.047,16.5-9.993,22.115a.355.355,0,0,1-.059.237C156.559,278.888,156.5,280.426,156.5,280.426Z" transform="translate(-134.475 -242.7)" fill="#0e8c5e"/>
            <path id="Path_262" data-name="Path 262" d="M202.128,244.415c-.237.118-.532.177-.828.3a51.2,51.2,0,0,0,4.139,14.724l4.317-1.064,3.548-.887L208.81,242.7a38.3,38.3,0,0,0-3.9.887C204.138,243.764,203.192,244.06,202.128,244.415Z" transform="translate(-152.784 -242.7)" fill="#0a7a4d"/>
            <path id="Path_263" data-name="Path 263" d="M156.973,299.9a32.288,32.288,0,0,0-.473,3.9l8.1,2.6,1.715-3.607v-.059A34.69,34.69,0,0,1,156.973,299.9Z" transform="translate(-134.475 -266.077)" fill="#19ab7c"/>
          </g>
          <g id="Group_39" data-name="Group 39" transform="translate(92.451 64.951)">
            <g id="Group_38" data-name="Group 38" transform="translate(50.582 0)">
              <path id="Path_264" data-name="Path 264" d="M373.594,203.062l-7.451,1.537a1.411,1.411,0,0,1-1.656-1.064l-3.311-15.965a1.411,1.411,0,0,1,1.064-1.656l7.451-1.537a1.411,1.411,0,0,1,1.656,1.064l3.311,15.965A1.367,1.367,0,0,1,373.594,203.062Z" transform="translate(-361.142 -184.342)" fill="#23406d"/>
              <path id="Path_265" data-name="Path 265" d="M374.032,200.762l-7.628,1.6-2.72-13.068a.919.919,0,0,1,.769-1.124l5.736-1.183a.919.919,0,0,1,1.124.769Z" transform="translate(-362.172 -185.412)" fill="#a8afba"/>
            </g>
            <path id="Path_266" data-name="Path 266" d="M354.284,206.62l1.892-.65s1.537.828,4.08-.355l-1.537-7.273s2.6-1.833,2.543-2.9-5.144-.828-7.214,4.139l-2.247.946Z" transform="translate(-306.742 -188.669)" fill="#feb19e"/>
            <path id="Path_267" data-name="Path 267" d="M323.733,211.411s-1.005.65-2.779,1.715c-5.854,3.37-20.1,10.644-35.774,10.525a12.36,12.36,0,0,1-1.478-.059,15.583,15.583,0,0,1-1.656-.118c-1.478-.118-3.016-.3-4.494-.532L275.6,207.864l5.2.237,1.419.059.828.059,13.778.65,20.814-6.623,2.957-.946C320.54,201.418,324.265,204.02,323.733,211.411Z" transform="translate(-275.6 -191.272)" fill="#0e8c5e"/>
            <path id="Path_268" data-name="Path 268" d="M283.7,228.229a15.583,15.583,0,0,1-1.656-.118c-1.478-.118-3.016-.3-4.494-.532L275.6,212.5l5.2.236,1.419.059c.355,1.478.71,3.134,1.005,4.849A66,66,0,0,1,283.7,228.229Z" transform="translate(-275.6 -195.85)" fill="#0a7a4d"/>
            <path id="Path_269" data-name="Path 269" d="M349.557,201.5l-2.957.946a26.537,26.537,0,0,1,3.37,10.762c1.774-1.005,2.779-1.715,2.779-1.715C353.282,204.1,349.557,201.5,349.557,201.5Z" transform="translate(-304.617 -191.354)" fill="#19ab7c"/>
          </g>
          <g id="Group_41" data-name="Group 41" transform="translate(88.193 99.459)">
            <g id="Group_40" data-name="Group 40" transform="translate(18.19 43.165)">
              <path id="Path_270" data-name="Path 270" d="M329.7,316.232h0a.891.891,0,0,1-.473,1.183l-9.52,4.08-.71-1.656,9.52-4.08A.969.969,0,0,1,329.7,316.232Z" transform="translate(-307.27 -315.699)" fill="#a1a7af"/>
              <path id="Path_271" data-name="Path 271" d="M299.658,326.109a6.53,6.53,0,1,0,3.43-8.574A6.637,6.637,0,0,0,299.658,326.109Zm10.821-4.612a5.233,5.233,0,1,1-6.859-2.779A5.236,5.236,0,0,1,310.479,321.5Z" transform="translate(-299.162 -316.233)" fill="#bac1cc"/>
            </g>
            <path id="Path_272" data-name="Path 272" d="M320.8,308.205l.65,1.951a23.764,23.764,0,0,1,.059,3.252c-.118,1.064-.887,2.9.177,3.134s.828,2.543,3.075,2.01,5.677-2.6,5.617-4.435-2.779-5.144-2.779-5.144l-.414-1.774Z" transform="translate(-289.815 -269.06)" fill="#feb19e"/>
            <path id="Path_273" data-name="Path 273" d="M306.995,280.426l-8.1,2.6-1.715-3.607v-.059l-8.042-16.852-8.515-2.07-3.666-.887-.591-.118-4.317-1.064-3.548-.887,4.494-14.783a38.308,38.308,0,0,1,3.9.887c.828.236,1.774.532,2.838.828.237.118.532.177.828.3.591.177,1.183.414,1.774.65a43.313,43.313,0,0,1,14.251,8.811c6.5,6.386,9.047,16.5,9.993,22.115a.356.356,0,0,0,.059.237C306.876,278.888,306.995,280.426,306.995,280.426Z" transform="translate(-268.441 -242.7)" fill="#0e8c5e"/>
            <path id="Path_274" data-name="Path 274" d="M279.576,244.415c.237.118.532.177.828.3a51.2,51.2,0,0,1-4.139,14.724l-4.317-1.064-3.548-.887,4.494-14.783a38.3,38.3,0,0,1,3.9.887C277.565,243.764,278.511,244.06,279.576,244.415Z" transform="translate(-268.4 -242.7)" fill="#0a7a4d"/>
            <path id="Path_275" data-name="Path 275" d="M316.9,302.838v.059l1.715,3.607,8.1-2.6s-.118-1.537-.473-3.9A38.748,38.748,0,0,1,316.9,302.838Z" transform="translate(-288.221 -266.118)" fill="#19ab7c"/>
          </g>
          <g id="Group_45" data-name="Group 45" transform="translate(35.744)">
            <path id="Path_276" data-name="Path 276" d="M191.156,119.306s-3.607-1.6-3.9-2.9-.828-4.376-1.833-4.553-.414,4.671-.414,4.671-.3-4.671-1.656-5.144-.237,5.736-.355,5.558c-.118-.237-.828-4.731-1.537-4.612-.71.059-1.005,4.612.059,6.8a16.061,16.061,0,0,1,1.36,4.2l6.5.414Z" transform="translate(-180.158 -89.563)" fill="#f49d8c"/>
            <path id="Path_277" data-name="Path 277" d="M192.853,126.9a10.079,10.079,0,0,0,4.08-6.327c.591-2.957-2.188-.414-3.075,1.656,0,0-4.731-.3-5.558,4.317Z" transform="translate(-183.215 -92.779)" fill="#feb19e"/>
            <path id="Path_278" data-name="Path 278" d="M182.77,159.524c3.134,6.5,8.278,11.471,12.3,14.665a.816.816,0,0,1,.237.177c.059,0,.059.059.118.059a47.438,47.438,0,0,0,5.677,3.844l9.224-12.418-3.075-2.01-1.36-.887-.769-.532-12.477-8.278-1.892-18.686-.414-3.962-8.515-.3a33.729,33.729,0,0,0-.887,4.08C179.873,140.9,178.867,151.246,182.77,159.524Z" transform="translate(-179.813 -97.673)" fill="#0e8c5e"/>
            <path id="Path_279" data-name="Path 279" d="M211.777,199.947,221,187.53l-3.075-2.01-1.36-.887-.769-.532c-2.661,1.478-6.8,4.849-9.7,12A53.846,53.846,0,0,0,211.777,199.947Z" transform="translate(-190.489 -119.292)" fill="#0a7a4d"/>
            <path id="Path_280" data-name="Path 280" d="M181.5,135.28a47.343,47.343,0,0,1,9.816.177L190.9,131.5l-8.515-.3C182.446,131.2,181.973,132.8,181.5,135.28Z" transform="translate(-180.436 -97.673)" fill="#19ab7c"/>
            <g id="Group_44" data-name="Group 44">
              <g id="Group_43" data-name="Group 43" transform="translate(2.779 3.016)">
                <path id="Path_281" data-name="Path 281" d="M194.807,84.8a5.2,5.2,0,1,0-8.87,3.725,6.476,6.476,0,0,1,1.537,2.6l.414,1.537h3.43l.414-1.478a5.859,5.859,0,0,1,1.6-2.661A5.846,5.846,0,0,0,194.807,84.8Z" transform="translate(-184.4 -79.6)" fill="#f4d242"/>
                <g id="Group_42" data-name="Group 42" transform="translate(3.311 6.386)">
                  <path id="Path_282" data-name="Path 282" d="M190.65,90.4a.65.65,0,1,0,0,1.3,1.1,1.1,0,0,0,.414-.118v5.44h.3V91.05A.671.671,0,0,0,190.65,90.4Zm0,1.064a.414.414,0,1,1,.414-.414A.4.4,0,0,1,190.65,91.464Z" transform="translate(-190 -90.4)" fill="#fff"/>
                  <path id="Path_283" data-name="Path 283" d="M194.01,91.4a.656.656,0,0,0-.65.65l-.059,5.44h.3l.059-4.849a.855.855,0,0,0,.414.118.656.656,0,0,0,.65-.65A.683.683,0,0,0,194.01,91.4Zm0,1.064a.414.414,0,1,1,.414-.414A.4.4,0,0,1,194.01,92.464Z" transform="translate(-191.349 -90.809)" fill="#fff"/>
                </g>
                <path id="Path_284" data-name="Path 284" d="M191.874,103.488h0a1.742,1.742,0,0,1-1.774-1.774V101.3h3.548v.414A1.779,1.779,0,0,1,191.874,103.488Z" transform="translate(-186.73 -88.469)" fill="#383838"/>
                <path id="Path_285" data-name="Path 285" d="M193.525,102.537h-3.607a.127.127,0,0,1-.118-.118h0a.127.127,0,0,1,.118-.118h3.607a.127.127,0,0,1,.118.118h0C193.7,102.477,193.644,102.537,193.525,102.537Z" transform="translate(-186.607 -88.877)" fill="#838689"/>
                <path id="Path_286" data-name="Path 286" d="M193.625,103.537h-3.607a.127.127,0,0,1-.118-.118h0a.127.127,0,0,1,.118-.118h3.607a.127.127,0,0,1,.118.118h0A.127.127,0,0,1,193.625,103.537Z" transform="translate(-186.648 -89.286)" fill="#838689"/>
              </g>
              <path id="Path_287" data-name="Path 287" d="M181.3,87.673h-1.36a.254.254,0,0,1-.237-.237h0a.254.254,0,0,1,.237-.237h1.36a.254.254,0,0,1,.237.237h0C181.592,87.555,181.474,87.673,181.3,87.673Z" transform="translate(-179.7 -79.69)" fill="#f4d242"/>
              <path id="Path_288" data-name="Path 288" d="M182.144,83.007l-1.242-.65a.284.284,0,0,1-.118-.355h0a.284.284,0,0,1,.355-.118l1.242.65a.284.284,0,0,1,.118.355h0C182.44,83.067,182.321,83.126,182.144,83.007Z" transform="translate(-180.134 -77.508)" fill="#f4d242"/>
              <path id="Path_289" data-name="Path 289" d="M182.344,91.184l-1.242.65a.284.284,0,0,0-.118.355h0a.284.284,0,0,0,.355.118l1.242-.65a.284.284,0,0,0,.118-.355h0A.284.284,0,0,0,182.344,91.184Z" transform="translate(-180.215 -81.309)" fill="#f4d242"/>
              <path id="Path_290" data-name="Path 290" d="M184.885,79.44l-.946-.946c-.118-.118-.118-.3,0-.355h0c.118-.118.3-.118.355,0l.946.946c.118.118.118.3,0,.355h0C185.18,79.558,185,79.558,184.885,79.44Z" transform="translate(-181.396 -75.951)" fill="#f4d242"/>
              <path id="Path_291" data-name="Path 291" d="M188.158,77.04l-.473-1.3a.264.264,0,0,1,.177-.355h0a.264.264,0,0,1,.355.177l.473,1.3a.264.264,0,0,1-.177.355h0A.248.248,0,0,1,188.158,77.04Z" transform="translate(-182.954 -74.852)" fill="#f4d242"/>
              <path id="Path_292" data-name="Path 292" d="M203.737,87.373h1.36a.254.254,0,0,0,.237-.237h0a.254.254,0,0,0-.237-.237h-1.36a.254.254,0,0,0-.237.237h0A.254.254,0,0,0,203.737,87.373Z" transform="translate(-189.427 -79.568)" fill="#f4d242"/>
              <path id="Path_293" data-name="Path 293" d="M202.939,82.707l1.242-.65a.284.284,0,0,0,.118-.355h0a.284.284,0,0,0-.355-.118l-1.242.65a.284.284,0,0,0-.118.355h0C202.643,82.767,202.821,82.826,202.939,82.707Z" transform="translate(-189.043 -77.386)" fill="#f4d242"/>
              <path id="Path_294" data-name="Path 294" d="M202.839,90.884l1.242.65a.284.284,0,0,1,.118.355h0a.284.284,0,0,1-.355.118l-1.242-.65a.284.284,0,0,1-.118-.355h0A.284.284,0,0,1,202.839,90.884Z" transform="translate(-189.002 -81.186)" fill="#f4d242"/>
              <path id="Path_295" data-name="Path 295" d="M200.393,79.14l.946-.946c.118-.118.118-.3,0-.355h0c-.118-.118-.3-.118-.355,0l-.946.946c-.118.118-.118.3,0,.355h0C200.157,79.258,200.334,79.258,200.393,79.14Z" transform="translate(-187.976 -75.828)" fill="#f4d242"/>
              <path id="Path_296" data-name="Path 296" d="M197.517,76.74l.473-1.3a.264.264,0,0,0-.177-.355h0a.264.264,0,0,0-.355.177l-.473,1.3a.264.264,0,0,0,.177.355h0A.248.248,0,0,0,197.517,76.74Z" transform="translate(-186.755 -74.73)" fill="#f4d242"/>
              <path id="Path_297" data-name="Path 297" d="M192.7,76.1v-1.36a.254.254,0,0,1,.237-.237h0a.254.254,0,0,1,.237.237V76.1a.254.254,0,0,1-.237.237h0C192.818,76.392,192.7,76.274,192.7,76.1Z" transform="translate(-185.013 -74.5)" fill="#f4d242"/>
            </g>
          </g>
          <g id="Group_48" data-name="Group 48" transform="translate(82.457 3.666)">
            <path id="Path_298" data-name="Path 298" d="M292,119.006s3.607-1.6,3.9-2.9.828-4.376,1.833-4.553.414,4.671.414,4.671.3-4.671,1.656-5.144.237,5.736.355,5.558c.118-.237.828-4.73,1.537-4.612.71.059,1.005,4.612-.059,6.8a16.06,16.06,0,0,0-1.36,4.2l-6.5.414Z" transform="translate(-272.309 -93.106)" fill="#f49d8c"/>
            <path id="Path_299" data-name="Path 299" d="M291.424,126.6a10.079,10.079,0,0,1-4.08-6.327c-.591-2.957,2.188-.414,3.075,1.656,0,0,4.73-.3,5.558,4.317Z" transform="translate(-270.373 -96.322)" fill="#feb19e"/>
            <path id="Path_300" data-name="Path 300" d="M286.255,159.483c-3.134,6.5-8.278,11.471-12.3,14.665a.818.818,0,0,0-.237.177c-.059,0-.059.059-.118.059a47.436,47.436,0,0,1-5.677,3.844L258.7,165.81l3.075-2.01,1.36-.887.769-.532,12.536-8.338,1.892-18.685.414-3.962,8.515-.3a33.727,33.727,0,0,1,.887,4.08C289.153,140.857,290.217,151.2,286.255,159.483Z" transform="translate(-258.7 -101.298)" fill="#0e8c5e"/>
            <path id="Path_301" data-name="Path 301" d="M267.924,199.947,258.7,187.53l3.075-2.01,1.36-.887.769-.532c2.661,1.478,6.8,4.849,9.7,12A53.844,53.844,0,0,1,267.924,199.947Z" transform="translate(-258.7 -122.958)" fill="#0a7a4d"/>
            <path id="Path_302" data-name="Path 302" d="M292.214,131.6l-.414,3.962a47.461,47.461,0,0,1,9.816-.177c-.473-2.543-.887-4.08-.887-4.08Z" transform="translate(-272.228 -101.38)" fill="#19ab7c"/>
            <g id="Group_47" data-name="Group 47" transform="translate(14.96)">
              <circle id="Ellipse_2" data-name="Ellipse 2" cx="5.617" cy="5.617" r="5.617" transform="translate(0.71 0.71)" fill="#efa245"/>
              <g id="Group_46" data-name="Group 46">
                <path id="Path_303" data-name="Path 303" d="M290.327,80.7a6.327,6.327,0,1,0,6.327,6.327A6.334,6.334,0,0,0,290.327,80.7Zm0,11.59a4.409,4.409,0,0,1-1.537-.237,5.4,5.4,0,0,1-3.489-3.489,4.409,4.409,0,0,1-.237-1.537v-.532A5.378,5.378,0,0,1,288.731,82a4.409,4.409,0,0,1,1.537-.237,5.274,5.274,0,0,1,5.263,5.263A5.187,5.187,0,0,1,290.327,92.29Z" transform="translate(-284 -80.7)" fill="#f4d242"/>
                <g id="XMLID_16_" transform="translate(4.317 2.897)">
                  <path id="XMLID_17_" d="M293.724,88.616V87.078c.71.118.71.591.71.71h.828a1.587,1.587,0,0,0-1.6-1.6V85.6H292.9v.591a1.6,1.6,0,1,0,0,3.193v1.537c-.71-.118-.71-.591-.71-.71h-.828a1.587,1.587,0,0,0,1.6,1.6V92.4h.828v-.591a1.587,1.587,0,0,0,1.6-1.6A1.682,1.682,0,0,0,293.724,88.616Zm-1.537-.769c0-.177,0-.591.71-.71v1.478C292.187,88.438,292.187,87.965,292.187,87.847Zm1.537,3.075V89.444c.71.118.71.591.71.71A.737.737,0,0,1,293.724,90.922Z" transform="translate(-291.3 -85.6)" fill="#f4d242"/>
                </g>
              </g>
            </g>
          </g>
        </g>
        <g id="Group_62" data-name="Group 62" transform="translate(43.545 42.745)">
          <g id="Group_56" data-name="Group 56" transform="translate(5.892 80.958)">
            <g id="Group_52" data-name="Group 52">
              <g id="Group_50" data-name="Group 50" transform="translate(8.719)">
                <path id="Path_304" data-name="Path 304" d="M233.566,371.392H220.321s-3.784-46.773-2.424-87.692h16.793l2.484,35.42C237.114,319.12,233.921,353.416,233.566,371.392Z" transform="translate(-217.601 -283.7)" fill="#2c2a40"/>
                <path id="Path_305" data-name="Path 305" d="M239.185,387.267c-1.478-20.932,2.779-64.453,2.838-64.867l.71.059c-.059.414-4.317,43.935-2.838,64.749Z" transform="translate(-226.295 -299.516)" fill="#5b5b6c"/>
              </g>
              <g id="Group_51" data-name="Group 51" transform="translate(0 87.751)">
                <path id="Path_306" data-name="Path 306" d="M227.185,440.024a4.871,4.871,0,0,1-.177,1.6c-.65,1.3-22.292,1.005-23.593.946-1.123-.059-.946-3.607,4.317-5.677a15,15,0,0,1,2.6-.769c5.263-1.183,5.085-4.021,5.085-4.021H226.3A53.8,53.8,0,0,1,227.185,440.024Z" transform="translate(-202.857 -432.1)" fill="#9595ae"/>
                <path id="Path_307" data-name="Path 307" d="M227.185,443.334a4.871,4.871,0,0,1-.177,1.6c-.65,1.3-22.292,1.005-23.593.946-1.123-.059-.946-3.607,4.317-5.677,1.3.237,2.661,1.242,3.193,4.2C210.983,444.339,222.218,444.457,227.185,443.334Z" transform="translate(-202.857 -435.41)" fill="#afb0c9"/>
              </g>
            </g>
            <g id="Group_55" data-name="Group 55" transform="translate(21.963 0.059)">
              <g id="Group_53" data-name="Group 53" transform="translate(13.195 87.692)">
                <path id="Path_308" data-name="Path 308" d="M275.847,441.561c-1.656.71-7.273.946-10.585.591a5.029,5.029,0,0,1-2.306-.591c-1.478-1.064.059-9.461.059-9.461h8.042s-.177,3.134,1.951,4.08a6.486,6.486,0,0,1,2.129,1.6l.118.118a4.719,4.719,0,0,1,.71.887C276.734,439.905,277.03,441.088,275.847,441.561Z" transform="translate(-262.314 -432.1)" fill="#9595ae"/>
                <path id="Path_309" data-name="Path 309" d="M277.867,444.258c-1.656.71-7.273.946-10.585.591-.355-4.139,3.075-6.15,5.854-6.15a5.441,5.441,0,0,1,3.962,1.774l.118.118a4.719,4.719,0,0,1,.71.887C278.754,442.6,279.05,443.785,277.867,444.258Z" transform="translate(-264.334 -434.797)" fill="#afb0c9"/>
              </g>
              <g id="Group_54" data-name="Group 54">
                <path id="Path_310" data-name="Path 310" d="M240,285.456l11.471,85.977h12.418l-2.6-74.565a81.623,81.623,0,0,0,.828-13.068Z" transform="translate(-240 -283.8)" fill="#2c2a40"/>
                <path id="Path_311" data-name="Path 311" d="M272.094,372.454h-.71c.828-24.007-3.311-73.855-3.37-74.328.71-7.569-.414-11.649-.414-11.649l.65-.177c.059.177,1.123,4.2.414,11.826C268.723,298.54,272.863,348.388,272.094,372.454Z" transform="translate(-251.28 -284.822)" fill="#5b5b6c"/>
              </g>
            </g>
          </g>
          <g id="Group_57" data-name="Group 57" transform="translate(0 39.039)">
            <path id="Path_312" data-name="Path 312" d="M204.25,239.9s-2.484,6.977-8.811,3.311c-6.268-3.666,1.005-19.809,1.005-19.809Z" transform="translate(-192.893 -217.137)" fill="#0e8c5e"/>
            <path id="Path_313" data-name="Path 313" d="M203.367,215.583s-.591-2.07,2.365-2.661,4.257,1.242,5.026,3.075Z" transform="translate(-197.153 -212.809)" fill="#feb19e"/>
          </g>
          <g id="Group_58" data-name="Group 58" transform="translate(10.175 24.261)">
            <path id="Path_314" data-name="Path 314" d="M250.309,219.265c-2.247,5.617-2.129,6.8-2.129,6.8l1.6,18.449s-26.491,8.929-35.065,0l-.828-14.9-.414-7.569-.059-.414L210.1,205.546l3.43.177c-.591-1.36-1.478-2.779-3.134-3.075,1.064-2.72,3.548-8.278,6.564-10.407,4.021-2.9,12.24-6.445,24.3-3.016S252.556,213.647,250.309,219.265Z" transform="translate(-210.1 -187.816)" fill="#19ab7c"/>
            <path id="Path_315" data-name="Path 315" d="M250.61,248.495s-.355,9.816-9.343,12.536c-8.988,2.661-16.143-8.042-17.621-8.87-1.242-.71-5.795-.237-7.273-.059l-.414-7.569-.059-.414,7.569-1.419,11.412,10.821Z" transform="translate(-212.47 -210.247)" fill="#0a7a4d"/>
            <path id="Path_316" data-name="Path 316" d="M245.425,222.5s-9.579,2.957-22.825,0v13.068s14.428,3.075,25.131,0Z" transform="translate(-215.209 -201.991)" fill="#a9d0ff"/>
            <path id="Path_317" data-name="Path 317" d="M250.878,208.8s-6.623,25.367-17.5,17.266l-3.075,3.37,15.2,9.461Z" transform="translate(-218.355 -196.392)" fill="#3150bc" opacity="0.47"/>
          </g>
          <g id="Group_59" data-name="Group 59" transform="translate(7.971)">
            <path id="Path_318" data-name="Path 318" d="M232.406,168.555s3.37-5.085,1.951-10.821-4.671-4.435-4.671-4.435,2.365-3.725-1.656-5.617-6.859-.355-4.021.71c0,0-5.854,0-9.284,3.666s-5.854-.059-6.8.71.828,3.311,2.365,3.607c0,0-3.666-.769-3.9,0s2.07,5.736,7.391,5.677c0,0-.71,3.252,4.73,6.564C223.951,171.867,232.406,168.555,232.406,168.555Z" transform="translate(-206.372 -146.788)" fill="url(#linear-gradient)"/>
            <path id="Path_319" data-name="Path 319" d="M246.507,184.8a11.243,11.243,0,0,1-.65,1.833c-1.005,2.424-3.311,6.445-7.332,6.268-1.36-.059-1.833-1.183-1.951-2.661-.177-2.01.177-4.612-.473-5.854l3.9-5.026,2.6-3.37.414-.591A51.355,51.355,0,0,0,246.507,184.8Z" transform="translate(-218.522 -158.481)" fill="#feb19e"/>
            <path id="Path_320" data-name="Path 320" d="M245.857,188.678c-1.005,2.424-3.311,6.445-7.332,6.268-1.36-.059-1.833-1.183-1.951-2.661-.177-2.01.177-4.612-.473-5.854l3.9-5.026,2.957-1.005a13.549,13.549,0,0,1-4.79,9.7s2.424.828,5.617-2.365C244.5,186.964,245.206,187.614,245.857,188.678Z" transform="translate(-218.522 -160.525)" fill="#ff856a"/>
            <path id="Path_321" data-name="Path 321" d="M247.077,185.2l.414,1.064s-1.36,5.558-6.091,7.273l.473,5.322s6.918-3.37,8.219-10.644C250.092,188.154,248.673,185.079,247.077,185.2Z" transform="translate(-220.688 -162.484)" fill="#23406d"/>
            <path id="Path_322" data-name="Path 322" d="M235.781,196.307l-.591,5.5s-4.139-2.957-2.779-9.106a5.275,5.275,0,0,0,2.72.769A3.208,3.208,0,0,0,235.781,196.307Z" transform="translate(-216.902 -165.552)" fill="#23406d"/>
            <path id="Path_323" data-name="Path 323" d="M221.7,168.367c1.242,5.263,2.72,10.289,7.037,12.654a3.47,3.47,0,0,0,3.548-.118c2.129-1.3,5.322-4.317,4.908-10.289,0,0,1.419.532,1.656-2.306s-.769-3.37-1.833-3.134-.946,4.021-.946,4.021-3.725-.828-4.553-5.795c0,0-1.6,2.247-2.9,2.779-1.36.591-.828-1.951-.828-1.951S226.785,168.012,221.7,168.367Z" transform="translate(-212.636 -153.577)" fill="#feb19e"/>
          </g>
          <g id="Group_61" data-name="Group 61" transform="translate(3.431 35.312)">
            <g id="Group_60" data-name="Group 60" transform="translate(0 5.552)">
              <path id="Path_324" data-name="Path 324" d="M214.107,236.948l-11.294.828a1.7,1.7,0,0,1-1.774-1.537L199.8,218.5a1.7,1.7,0,0,1,1.537-1.774l11.294-.828a1.7,1.7,0,0,1,1.774,1.537l1.242,17.739A1.622,1.622,0,0,1,214.107,236.948Z" transform="translate(-199.144 -215.894)" fill="#bac1cc"/>
              <path id="Path_325" data-name="Path 325" d="M213.007,236.948l-11.294.828a1.7,1.7,0,0,1-1.774-1.537L198.7,218.5a1.7,1.7,0,0,1,1.537-1.774l11.294-.828a1.7,1.7,0,0,1,1.774,1.537l1.242,17.739A1.622,1.622,0,0,1,213.007,236.948Z" transform="translate(-198.694 -215.894)" fill="#e1e7f4"/>
              <path id="Path_326" data-name="Path 326" d="M211.672,232.827c.059,1.242-.532,2.306-1.36,2.365s-1.6-.887-1.715-2.129c-.059-1.242.532-2.306,1.36-2.365C210.844,230.639,211.613,231.585,211.672,232.827Z" transform="translate(-202.74 -221.943)" fill="#f8fbff"/>
            </g>
            <path id="Path_327" data-name="Path 327" d="M225.173,232.945s-.71-4.553-4.139-4.73v1.833a3.828,3.828,0,0,1-3.548-1.005c-1.36-1.537-2.779-2.661-2.424,1.537s3.311,6.268,6.5,6.031l1.242,1.064,3.489-3.548Z" transform="translate(-205.361 -215.15)" fill="#feb19e"/>
            <path id="Path_328" data-name="Path 328" d="M246.892,243.1c-8.16,3.134-15.611-5.677-19.04-10.644-1.242-1.833-1.951-3.075-1.951-3.075l5.026-4.79,2.779,2.306,8.633,7.037s1.478-6.859,2.779-14.9,3.37-13.127,7.805-12.477C261.674,207.8,258.067,238.788,246.892,243.1Z" transform="translate(-209.813 -206.506)" fill="#0e8c5e"/>
            <path id="Path_329" data-name="Path 329" d="M233.705,239.347a18.947,18.947,0,0,1-5.854,5.617c-1.242-1.833-1.951-3.075-1.951-3.075l5.026-4.79Z" transform="translate(-209.813 -219.009)" fill="#9eb2ef"/>
          </g>
        </g>
      </g>
    </g>
  </g>
</svg>
