<svg xmlns="http://www.w3.org/2000/svg" xmlns:xlink="http://www.w3.org/1999/xlink" width="76" height="78" viewBox="0 0 76 78">
  <defs>
    <filter id="Ellipse_6" x="0" y="2" width="76" height="76" filterUnits="userSpaceOnUse">
      <feOffset dy="4" input="SourceAlpha"/>
      <feGaussianBlur stdDeviation="2" result="blur"/>
      <feFlood flood-color="#7e8397" flood-opacity="0.251"/>
      <feComposite operator="in" in2="blur"/>
      <feComposite in="SourceGraphic"/>
    </filter>
  </defs>
  <g id="Group_221" data-name="Group 221" transform="translate(1.81 0)">
    <path id="Path_29701" data-name="Path 29701" d="M415.8,127.8a36,36,0,1,1,36-36A36.055,36.055,0,0,1,415.8,127.8Zm0-71.279a35.206,35.206,0,1,0,35.206,35.206A35.254,35.254,0,0,0,415.8,56.521Z" transform="translate(-379.609 -55.8)" fill="#7e8397"/>
    <g transform="matrix(1, 0, 0, 1, -1.81, 0)" filter="url(#Ellipse_6)">
      <circle id="Ellipse_6-2" data-name="Ellipse 6" cx="32" cy="32" r="32" transform="translate(6 4)" fill="#fff"/>
    </g>
    <path id="grey_icon" data-name="grey icon" d="M15.667,2A13.667,13.667,0,1,0,29.333,15.667,13.682,13.682,0,0,0,15.667,2ZM10.883,15.667a2.051,2.051,0,1,1,2.051-2.05,2.051,2.051,0,0,1-2.051,2.05Zm9.557-.019a2.042,2.042,0,1,1,1.99-2.04,2.042,2.042,0,0,1-1.99,2.04Z" transform="translate(20.524 20.333)" fill="#7e8397"/>
  </g>
</svg>
