<svg xmlns="http://www.w3.org/2000/svg" width="17.998" height="17.999" viewBox="0 0 17.998 17.999">
  <g id="Logout-D" transform="translate(-0.014)">
    <g id="Group_217" data-name="Group 217" transform="translate(0.014)">
      <path id="Path_29708" data-name="Path 29708" d="M17.955,7.963a.75.75,0,0,0-.163-.244L15.543,5.469a.75.75,0,1,0-1.06,1.06l.97.97H13.513V.75a.75.75,0,0,0-.75-.75h-12A.668.668,0,0,0,.687.014a.662.662,0,0,0-.1.019A.724.724,0,0,0,.369.125C.353.136.332.136.316.148S.308.161.3.166A.743.743,0,0,0,.1.4.613.613,0,0,0,.081.466.711.711,0,0,0,.022.641a.467.467,0,0,0,0,.065C.024.721.014.735.014.75v15a.749.749,0,0,0,.6.735l7.5,1.5A.7.7,0,0,0,8.264,18a.75.75,0,0,0,.75-.75V16.5h3.75a.75.75,0,0,0,.75-.75V9h1.939l-.97.97a.75.75,0,1,0,1.06,1.06L17.793,8.78a.752.752,0,0,0,.163-.817ZM6.741,11.432A.75.75,0,0,1,6.014,12a.726.726,0,0,1-.182-.022l-1.5-.375A.75.75,0,1,1,4.7,10.147l1.5.375A.75.75,0,0,1,6.741,11.432ZM12.013,15h-3V3a.751.751,0,0,0-.535-.718L5.874,1.5h6.139Z" transform="translate(-0.014)" fill="#7e8397"/>
    </g>
  </g>
</svg>
