<svg xmlns="http://www.w3.org/2000/svg" width="22.195" height="25" viewBox="0 0 22.195 25">
  <g id="Group_198" data-name="Group 198" transform="translate(-4623.739 -1204)">
    <path id="Path_576" data-name="Path 576" d="M136.977,99.679a10.65,10.65,0,1,0,10.707,10.65,10.679,10.679,0,0,0-10.707-10.65Zm-6.9,17.688a9.778,9.778,0,0,1-2.957-6.334h4.544c0,.025.007.05.01.075s.006.043.01.065.008.048.012.072l.011.06c0,.022.008.043.013.064s.008.042.013.063l.015.071.014.061c.006.024.012.048.018.072l.013.05.02.073.017.059c.007.025.015.05.022.075s.008.028.013.042.017.053.026.079l.017.05.027.076.015.043.033.086.012.037.033.081.016.038c.012.029.025.057.038.085l.014.031.041.087.015.031.042.085.014.027.05.094.012.022.049.088.01.018.056.1.011.018q.028.046.058.092l.008.013.062.094.01.015.066.095.007.009.067.092.008.01.072.094.007.009.074.091,0,.005.078.092.007.008.081.091Zm6.9-2.524a4.514,4.514,0,1,1,4.537-4.514A4.526,4.526,0,0,1,136.977,114.842Zm5.314-5.217h0c0-.025-.007-.049-.01-.074l-.01-.065c0-.024-.008-.048-.012-.072l-.011-.061c0-.021-.008-.042-.012-.063l-.013-.064-.015-.07-.014-.061-.018-.072-.013-.05-.02-.073-.017-.058c-.007-.025-.015-.05-.022-.075l-.013-.041-.026-.08-.017-.05-.027-.076-.016-.043c-.011-.029-.022-.057-.033-.086l-.014-.034-.033-.081-.016-.039-.038-.085-.014-.03-.041-.088L141.8,108l-.044-.088-.012-.024-.051-.1-.011-.02-.05-.089-.01-.018c-.019-.032-.038-.064-.057-.1l-.01-.017-.059-.094-.007-.01-.063-.1-.009-.013c-.022-.032-.044-.064-.067-.1l-.006-.008-.068-.092-.008-.01-.072-.094-.007-.008-.074-.091,0-.005-.078-.092-.007-.008-.081-.091,2.932-3.454a9.777,9.777,0,0,1,2.958,6.334Z" transform="translate(4497.469 1108.021)" fill="#7e8397"/>
    <path id="Path_577" data-name="Path 577" d="M272.748,242.37a3.791,3.791,0,1,0,3.791,3.791A3.791,3.791,0,0,0,272.748,242.37Zm0,7.154a3.362,3.362,0,1,1,3.362-3.362A3.362,3.362,0,0,1,272.748,249.524Z" transform="translate(4361.72 972.088)" fill="#7e8397"/>
    <path id="Path_578" data-name="Path 578" d="M312.515,284.3a1.628,1.628,0,1,0,1.628,1.628A1.628,1.628,0,0,0,312.515,284.3Zm0,2.4a.77.77,0,1,1,.77-.77A.771.771,0,0,1,312.515,286.7Z" transform="translate(4321.949 932.34)" fill="#7e8397"/>
    <path id="Path_579" data-name="Path 579" d="M481.9,31.832a.849.849,0,0,0,1.112-.382l1.064-3.272a.143.143,0,0,0-.272-.088L482.9,30.88a1.114,1.114,0,0,0-.56-.392.736.736,0,1,0-.437,1.345Z" transform="translate(4159.963 1176.009)" fill="#7e8397"/>
    <path id="Path_580" data-name="Path 580" d="M521.881,38.137l-.512-5.148a.215.215,0,0,0-.428.043l.436,4.389a1.675,1.675,0,0,0-1.008-.2c-.777.077-1.359.614-1.3,1.2a1.276,1.276,0,0,0,1.511.918c.777-.077,1.359-.614,1.3-1.2Z" transform="translate(4124.048 1171.453)" fill="#7e8397"/>
  </g>
</svg>
