<svg xmlns="http://www.w3.org/2000/svg" width="20.192" height="25.309" viewBox="0 0 20.192 25.309">
  <g id="Group_196" data-name="Group 196" transform="translate(29.018 -116)">
    <path id="Path_553" data-name="Path 553" d="M215.069,115.386c-.082,0-.272-.026-.462-.026s-.6,0-1.224-.026a.883.883,0,0,0-.925.76l-.653,5.582c-.109.655-.462,3.249-.571,4.035a31.416,31.416,0,0,1-1.8,4.3l2.258.262A23.916,23.916,0,0,0,213.382,126c.082-.55.272-1.913.435-2.935a6.763,6.763,0,0,1,1.849,1.074,24.534,24.534,0,0,1-.272,3.616h2.176a16.711,16.711,0,0,0,.163-4.193c-.218-.786-1.224-1.467-2.176-1.965l.163-1.467a1.536,1.536,0,0,0,.517.629,9.919,9.919,0,0,0,3.155.708h.109a.926.926,0,0,0,.925-.786.9.9,0,0,0-.816-1,14.429,14.429,0,0,1-2.23-.393c-.082-.236-.218-.655-.326-.97-.462-1.52-.87-2.83-1.985-2.935Z" transform="translate(-235.127 5.599)" fill="#7e8397"/>
    <path id="Path_554" data-name="Path 554" d="M271.756,13.8a2.176,2.176,0,1,1-2.271,2.076,2.176,2.176,0,0,1,2.271-2.076" transform="translate(-292.268 102.198)" fill="#7e8397"/>
    <path id="Path_555" data-name="Path 555" d="M185.568,112.493l1.061.109a.957.957,0,0,0,1.061-.87l.571-5.385a.957.957,0,0,0-.87-1.061l-1.061-.109a.957.957,0,0,0-1.061.87l-.571,5.385A.972.972,0,0,0,185.568,112.493Z" transform="translate(-211.418 15.13)" fill="#7e8397"/>
    <path id="Path_556" data-name="Path 556" d="M157.584,375.314l-2.82-4.189c-.027-.054-.053-.082-.08-.136l-1.091-2.693a.691.691,0,0,0-.931-.408l-2.98,1.306-3.246.027a.778.778,0,0,0-.585.3l-1.6,2.122a.714.714,0,0,1-.665.3l-3.405-.408a.713.713,0,0,0-.718.381L137.6,375.4a.754.754,0,0,0,.639,1.115h18.729a.783.783,0,0,0,.612-1.2Z" transform="translate(-166.531 -235.202)" fill="#7e8397"/>
  </g>
</svg>
