<svg xmlns="http://www.w3.org/2000/svg" width="22.75" height="23.143" viewBox="0 0 22.75 23.143">
  <g id="noun-psychology-1613682" transform="translate(-95.082 -19.427)">
    <path id="Path_601" data-name="Path 601" d="M117.807,34.931l-2.288-5.255a.29.29,0,0,1-.025-.117,10.206,10.206,0,1,0-16.1,8.386.391.391,0,0,1,.168.321v4.3h11.513V40.2a.391.391,0,0,1,.39-.39h2.98a.3.3,0,0,0,.3-.272c.062-.607.215-2.16.367-3.91a.3.3,0,0,1,.3-.276h2.109a.3.3,0,0,0,.278-.424ZM105.03,21.371a7.925,7.925,0,0,1,7.437,4.307,6.941,6.941,0,0,1,.585,1.591h-4.647l-.378-1.156a.384.384,0,0,0-.74.034l-.531,2.317-.487-1.856a.384.384,0,0,0-.739-.016l-.257.829-.764-4.865a.384.384,0,0,0-.763.027l-.588,6.977-.687-4.123a.385.385,0,0,0-.374-.321h0a.385.385,0,0,0-.377.312l-.422,2.2-.272-1.762a.384.384,0,0,0-.748-.051l-.431,1.453H97.594a8.039,8.039,0,0,1,7.437-5.9Zm3.217,9.595c-1.332.047-4.277.893-3.96,3.55a1.78,1.78,0,1,1-3.538.371c-.508-3.088-3.274-1.036-3.435-5.173a8.073,8.073,0,0,1,.109-1.677h2.7a.385.385,0,0,0,.369-.275l.025-.086.349,2.264a.384.384,0,0,0,.373.326h.007a.384.384,0,0,0,.377-.312l.437-2.276.839,5.035a.384.384,0,0,0,.379.321h.016a.384.384,0,0,0,.368-.352l.578-6.857.526,3.35a.384.384,0,0,0,.747.054l.349-1.126.543,2.069a.384.384,0,0,0,.372.287h.006a.385.385,0,0,0,.369-.3l.571-2.492.034.1a.384.384,0,0,0,.365.265h5.014c.005,1.519-1.122,2.795-4.894,2.928Z" fill="#7e8397"/>
  </g>
</svg>
