<svg xmlns="http://www.w3.org/2000/svg" width="20.082" height="25" viewBox="0 0 20.082 25">
  <g id="reading_s" transform="translate(-43.076 -215.189)">
    <path id="Path_560" data-name="Path 560" d="M280.73,426.95h2.124v.374H280.73Z" transform="translate(-232.474 -189.105)" fill="#19ab7c"/>
    <path id="Path_561" data-name="Path 561" d="M264.1,400.521h.875v-4.6H264.1Z" transform="translate(-216.986 -160.333)" fill="#19ab7c"/>
    <path id="Path_562" data-name="Path 562" d="M314.55,398.012v2.511h.879v-4.6h-.879Z" transform="translate(-263.924 -160.334)" fill="#19ab7c"/>
    <path id="Path_563" data-name="Path 563" d="M255.066,107.355a2.511,2.511,0,0,0,2.507-2.507v-1.563a2.509,2.509,0,0,0-5.018,0v1.563a2.511,2.511,0,0,0,2.511,2.507Z" transform="translate(-206.282 114.413)" fill="#19ab7c"/>
    <path id="Path_564" data-name="Path 564" d="M385.032,202.719a1.242,1.242,0,0,1,1.026.541l.541-3.284-1.221-.277-.383,3.02Z" transform="translate(-329.485 22.343)" fill="#19ab7c"/>
    <path id="Path_565" data-name="Path 565" d="M251.374,374.92h-1.555v1.192h6.621V374.94h-5.067Z" transform="translate(-203.753 -140.648)" fill="#19ab7c"/>
    <path id="Path_566" data-name="Path 566" d="M421.46,256.98H425.7v1.148H421.46Z" transform="translate(-363.575 -30.917)" fill="#19ab7c"/>
    <path id="Path_567" data-name="Path 567" d="M421.46,236.6H425.7v1.148H421.46Z" transform="translate(-363.575 -11.956)" fill="#19ab7c"/>
    <path id="Path_568" data-name="Path 568" d="M208.021,236.42v-3.41a.956.956,0,1,0-1.908,0v3.41a.956.956,0,1,0,1.908,0Z" transform="translate(-163.034 -7.751)" fill="#19ab7c"/>
    <path id="Path_569" data-name="Path 569" d="M355.764,277.37h-9.694a.549.549,0,0,0,0,1.1h9.694a.549.549,0,0,0,0-1.1Z" transform="translate(-293.155 -49.887)" fill="#19ab7c"/>
    <path id="Path_570" data-name="Path 570" d="M216.488,313.581V310.4a1.112,1.112,0,0,1-.444,0v3.179a2.283,2.283,0,0,0,2.12,2.271V315.4a1.839,1.839,0,0,1-1.677-1.823Z" transform="translate(-172.246 -80.754)" fill="#19ab7c"/>
    <path id="Path_571" data-name="Path 571" d="M434,305.956a1.223,1.223,0,0,1,.126.11c.024.024.053.041.077.069h0a1.2,1.2,0,0,1,.3,1.16.319.319,0,0,1-.037.1,1.221,1.221,0,0,1-.081.191c0,.037-.045.065-.069.1a1.967,1.967,0,0,1-.313.322v.85h1.424V297.076H434Z" transform="translate(-375.204 -68.669)" fill="#19ab7c"/>
    <path id="Path_572" data-name="Path 572" d="M254.781,208.316l-2.4-1.958a.168.168,0,0,1,.211-.261l3.488,2.849h0a1.454,1.454,0,0,0,.916.326h2.637a.912.912,0,0,0,0-1.819H257.76a1.785,1.785,0,0,1-1.127-.407l-2.552-2.108a2.1,2.1,0,0,0-1.343-.484h-1.1a1.875,1.875,0,0,0-1.876,1.876v6.947h5.018Z" transform="translate(-203.776 17.812)" fill="#19ab7c"/>
    <path id="Path_573" data-name="Path 573" d="M370.783,196.509l-.753-.171-.423,3.264h.785Z" transform="translate(-315.155 25.476)" fill="#19ab7c"/>
    <path id="Path_574" data-name="Path 574" d="M387.735,421.36a.917.917,0,0,0-.35-.358.9.9,0,0,0-.85-.024l-.741.362-1.7.814-.106.053.639,1.184a.5.5,0,0,0,.659.212l2.035-1.005.049-.033a.9.9,0,0,0,.35-1.221Z" transform="translate(-328.624 -183.478)" fill="#19ab7c"/>
    <path id="Path_575" data-name="Path 575" d="M259.339,331.673a1.843,1.843,0,0,0-1.75-1.274h-7.777v1.343a1.562,1.562,0,0,0,1.554,1.559h5.75a.166.166,0,0,1,.15.1l2.141,4.619,1.677-.814Z" transform="translate(-203.836 -99.57)" fill="#19ab7c"/>
  </g>
</svg>
