<svg xmlns="http://www.w3.org/2000/svg" width="241.449" height="203.804" viewBox="0 0 241.449 203.804">
  <g id="OBJECTS" transform="translate(-36.2 -58.581)">
    <path id="Path_85" data-name="Path 85" d="M274.256,164.592c-5.155-19.933-23.886-18.673-41.585-15.007-9.566,2-22.912,4.754-36.888.687-30.015-8.764-64.554-10.94-81.566,0s-27.265,24.115-22.339,42.5,17.356,34.941,6.759,44.793S88.211,284.708,131.8,287.629s39.237-38.893,68.048-37c28.754,1.948,87.867,30.244,90.388,9.738s-29.556-35.17-18.043-69.251C274.485,184.411,276.6,173.7,274.256,164.592Z" transform="translate(-23.257 -36.005)" fill="#2c2a40" opacity="0.1"/>
    <g id="Group_2" data-name="Group 2" transform="translate(36.2 83.623)">
      <path id="Path_86" data-name="Path 86" d="M236.3,114.672s1.088-7.16,4.239-6.874c.859.057,1.432.974,1.833,1.89a.677.677,0,0,0,1.26-.057c.8-2.921,2.52-7.332,5.155-7.332,2.692,0,2.807,5.1,2.635,8.134a.469.469,0,0,0,.859.286c.745-1.031,1.776-2.062,3.036-1.776,2.463.573,1.833,5.671,1.833,5.671H236.3Z" transform="translate(-121.683 -102.3)" fill="#2c2a40" opacity="0.1"/>
      <path id="Path_87" data-name="Path 87" d="M36.2,231.972s1.088-7.16,4.239-6.874c.859.057,1.432.974,1.833,1.89a.678.678,0,0,0,1.26-.057c.8-2.921,2.52-7.332,5.155-7.332,2.692,0,2.807,5.1,2.635,8.134a.469.469,0,0,0,.859.286c.745-1.031,1.776-2.062,3.036-1.776,2.463.573,1.833,5.671,1.833,5.671H36.2Z" transform="translate(-36.2 -152.411)" fill="#2c2a40" opacity="0.1"/>
      <path id="Path_88" data-name="Path 88" d="M421.2,182.072s1.088-7.16,4.239-6.874c.859.057,1.432.974,1.833,1.89a.678.678,0,0,0,1.26-.057c.8-2.921,2.52-7.332,5.155-7.332,2.692,0,2.807,5.1,2.635,8.134a.469.469,0,0,0,.859.286c.745-1.031,1.776-2.062,3.036-1.776,2.463.573,1.833,5.671,1.833,5.671H421.2Z" transform="translate(-200.673 -131.093)" fill="#2c2a40" opacity="0.1"/>
    </g>
    <g id="Group_19" data-name="Group 19" transform="translate(142.669 87.282)">
      <g id="Group_4" data-name="Group 4" transform="translate(0 55.969)">
        <g id="Group_3" data-name="Group 3" transform="translate(11.585)">
          <path id="Path_89" data-name="Path 89" d="M278.558,216.309a28.757,28.757,0,0,1-7.962,4.64s-2.692,1.718-6.186,3.666h0a45.54,45.54,0,0,1-10.253,4.7,48.611,48.611,0,0,0-6.473,2.291,5.325,5.325,0,0,0-.573.286h0c-1.661.745-2.692,1.317-2.692,1.317l-2.119-4.983s3.838-3.78,6.072-5.671c2.807-2.348,7.9-7.332,13.8-9.451h0a12.443,12.443,0,0,1,1.375-.4s4.811-3.322,8.306-5.155a10.6,10.6,0,0,1,2.807-1.146C274.72,206.342,280.334,211.5,278.558,216.309Z" transform="translate(-242.3 -206.399)" fill="#f9b587"/>
          <path id="Path_90" data-name="Path 90" d="M280.25,220.107s-2-2.234-3.15-2.406h0a12.434,12.434,0,0,1,1.375-.4A7.028,7.028,0,0,1,280.25,220.107Z" transform="translate(-257.167 -211.056)" fill="#f39568"/>
          <path id="Path_91" data-name="Path 91" d="M295.048,216.309a28.758,28.758,0,0,1-7.962,4.64s-2.692,1.718-6.186,3.666c2.406-1.718,6.186-5.384,9.107-7.847,2-1.718.916-3.9.057-5.9-.344-.859-1.2-2.348-1.6-3.265,0-.057-.057-.057-.115-.057a10.6,10.6,0,0,1,2.807-1.146C291.21,206.342,296.824,211.5,295.048,216.309Z" transform="translate(-258.79 -206.399)" fill="#f39568"/>
        </g>
        <path id="Path_92" data-name="Path 92" d="M238.3,246.047l.63,5.957a1.973,1.973,0,0,1-.63,1.661l-3.494,3.208a1,1,0,0,1-1.432-.057h0a1.035,1.035,0,0,1-.115-1.26l2.578-3.78-.458-1.146-1.489,2.291-1.2,2.234-.63,3.494a.916.916,0,0,1-1.088.745h0a.881.881,0,0,1-.687-.974l.344-4.239.516-3.093-1.26,3.15-1.375,5.212a.934.934,0,0,1-.745.63h0a.86.86,0,0,1-.974-.916l.286-4.582.916-3.265-2.749,4.582-1.489,3.208a.774.774,0,0,1-.916.4h0a.8.8,0,0,1-.516-.974l1.146-3.78,1.948-3.723-1.89,2.921-.516,1.146a.482.482,0,0,1-.63.229h0a.465.465,0,0,1-.286-.516l.286-1.317,1.317-2.749,10.024-6.644A7.064,7.064,0,0,1,238.3,246.047Z" transform="translate(-222.074 -222.505)" fill="#f9b587"/>
        <path id="Path_93" data-name="Path 93" d="M250.133,249.241a3.4,3.4,0,0,0-.458.229h0a3.647,3.647,0,0,0-1.375-1.776C248.357,247.638,249.274,247.924,250.133,249.241Z" transform="translate(-233.278 -224.038)" fill="#f39568"/>
      </g>
      <path id="Path_94" data-name="Path 94" d="M382.727,207.1a1.987,1.987,0,0,1-1.146.859c.4,6.072.229,11.284-.687,13.633-2.807,7.275-26.807,10.826-32.592,5.556s-8.878-40.039-1.146-45.537c5.785-4.124,17.986-4.754,23.771-4.811a5.917,5.917,0,0,1,5.556,3.666,81.043,81.043,0,0,1,3.723,15.408,3.892,3.892,0,0,1,1.088.172C382.5,196.446,383.3,205.954,382.727,207.1Z" transform="translate(-273.537 -137.784)" fill="#2c2a40"/>
      <g id="Group_5" data-name="Group 5" transform="translate(42.586 129.746)">
        <path id="Path_95" data-name="Path 95" d="M318.978,346.527a6.791,6.791,0,0,0,1.2,2.52s-2.52,1.031-4.869,2c-1.776.745-4.754,1.146-6.644,1.89a5.928,5.928,0,0,0-1.2.63c-.057.057-.172.115-.229.172-1.031.974-6.587,3.265-8.306,3.723a1.118,1.118,0,0,1-.4.057,2.1,2.1,0,0,1-1.718-.917h0a3.981,3.981,0,0,1-.115-3.265,15.352,15.352,0,0,1,3.036-5.041,20.773,20.773,0,0,1,5.671-4.812,52.281,52.281,0,0,0,5.1-3.265c1.6-1.776,3.036-3.78,5.27-4.64a5.8,5.8,0,0,1,2.062-.286,21.184,21.184,0,0,1,5.27,1.031S317.718,341.372,318.978,346.527Z" transform="translate(-296.422 -335.243)" fill="#b0b1ca"/>
        <path id="Path_96" data-name="Path 96" d="M317.9,335.2a14.431,14.431,0,0,0-3.551,3.437c-1.088,1.89-5.327,3.9-7.16,5.1s-8.936,6.759-9.623,9.795c-.63,2.635.63,3.666,1.375,3.9a1.118,1.118,0,0,1-.4.057c-.974,0-2.749-.8-1.833-4.239a15.351,15.351,0,0,1,3.036-5.041,20.773,20.773,0,0,1,5.671-4.811,52.29,52.29,0,0,0,5.1-3.265c1.6-1.776,3.036-3.78,5.27-4.64A5.936,5.936,0,0,1,317.9,335.2Z" transform="translate(-296.436 -335.2)" fill="#2c2a40"/>
        <path id="Path_97" data-name="Path 97" d="M320.47,357.52s-2.52,1.031-4.869,2c-1.776.745-4.754,1.146-6.644,1.89a5.926,5.926,0,0,0-1.2.63c-.057.057-.172.115-.229.172-1.031.974-6.587,3.265-8.306,3.723a1.118,1.118,0,0,1-.4.057,2.1,2.1,0,0,1-1.718-.916h0a21.906,21.906,0,0,0,5.5-2c1.2-.8,2.864-2,4.468-2.864a18.271,18.271,0,0,0-1.661-2.635,20.039,20.039,0,0,1,2.463,2.234,5.757,5.757,0,0,1,1.718-.516c1.833-.172,7.675-2.119,9.738-4.3A7.524,7.524,0,0,0,320.47,357.52Z" transform="translate(-296.712 -343.659)" fill="#2c2a40" opacity="0.2"/>
      </g>
      <g id="Group_6" data-name="Group 6" transform="translate(38.861 115.991)">
        <path id="Path_98" data-name="Path 98" d="M303.827,319.754c-.057,2.807.573,5.155.458,6.129-.172,1.776-3.208,5.384-3.208,5.384a10.358,10.358,0,0,1-4.01,6.473h-.057l-.057.057a4.576,4.576,0,0,1-4.181.745,3.947,3.947,0,0,1-.458-.172c-2.749-1.317-3.609-10.883,0-14.721,3.494-3.723,4.983-11.284,8.477-12.143s5.27.687,5.27.687c-.115.115-.172.286-.286.4A14.681,14.681,0,0,0,303.827,319.754Z" transform="translate(-289.919 -311.212)" fill="#b0b1ca"/>
        <path id="Path_99" data-name="Path 99" d="M306.061,312.11c-.115.115-.172.286-.286.4-.344-.115-3.609-1.26-5.671,0-2.119,1.375-3.322,6.53-4.468,7.962s-4.64,6.587-4.754,8.592-.573,7.045,1.375,8.477a4.44,4.44,0,0,0,4.7.172,4.543,4.543,0,0,1-4.64.573c-2.749-1.317-3.609-10.883,0-14.721,3.494-3.723,4.983-11.284,8.477-12.143C304.285,310.621,306.061,312.11,306.061,312.11Z" transform="translate(-289.919 -311.186)" fill="#2c2a40"/>
        <path id="Path_100" data-name="Path 100" d="M306.413,332.229c-.172,1.661-2.749,4.811-3.15,5.327l-.057.057h0a10.358,10.358,0,0,1-4.01,6.473h-.057l-.057.057a4.576,4.576,0,0,1-4.181.745,3.02,3.02,0,0,1,.859-.286c2.463-.516,4.582-3.952,5.041-5.785a5.661,5.661,0,0,1,1.146-2,6.935,6.935,0,0,0-2.864-1.031,4.725,4.725,0,0,1,3.208.516c1.26-1.6,2.864-3.322,3.036-4.067.286-1.2.516-6.129.516-6.129C305.9,328.964,306.528,331.255,306.413,332.229Z" transform="translate(-292.047 -317.557)" fill="#2c2a40" opacity="0.2"/>
      </g>
      <g id="Group_8" data-name="Group 8" transform="translate(109.546 0.584)">
        <path id="Path_101" data-name="Path 101" d="M428.889,141.713l-7.045,3.952-7.16,3.952s-2.864-6.473-.286-10.539c0,0,.573-.344,1.489-.8.63-.344,1.432-.745,2.234-1.088a13.99,13.99,0,0,1,1.375-.573,41.6,41.6,0,0,1,1.89-4.983,5.147,5.147,0,0,0,.63-2.921,1.616,1.616,0,0,0-.229-.745,34.391,34.391,0,0,0,5.785-3.666C427.629,124.3,432.154,134.668,428.889,141.713Z" transform="translate(-413.322 -115.941)" fill="#f9b587"/>
        <path id="Path_102" data-name="Path 102" d="M426.683,148.664a4.769,4.769,0,0,1-4.983-2.291,13.984,13.984,0,0,1,1.375-.573C423.075,145.857,424.449,148.32,426.683,148.664Z" transform="translate(-416.901 -125.126)" fill="#f39568"/>
        <path id="Path_103" data-name="Path 103" d="M421.844,156.089l-7.16,3.952s-2.864-6.473-.286-10.539c0,0,.573-.344,1.489-.8,0,0,.057,5.5.859,6.874C417.434,157.006,419.954,156.547,421.844,156.089Z" transform="translate(-413.322 -126.365)" fill="#f39568"/>
        <g id="Group_7" data-name="Group 7" transform="translate(1.877)">
          <path id="Path_104" data-name="Path 104" d="M429.029,118.066a34.783,34.783,0,0,1-5.1,3.838c-.172.115-.458,0-.687-.229a8.221,8.221,0,0,1-2.807-.344c-.516-.229-.516-.916-.344-1.661-1.2-.286-3.551-2.119-3.494-3.9a2.217,2.217,0,0,1,2.062-2.062,1.765,1.765,0,0,1,2.119-1.833c.115-.974,1.833-1.375,1.833-1.375.172-.8,1.317-.974,2-.63s4.64,4.926,4.811,5.785A8.892,8.892,0,0,1,429.029,118.066Z" transform="translate(-416.598 -109.707)" fill="#f9b587"/>
          <path id="Path_105" data-name="Path 105" d="M424.7,121.156c.286,1.088-.63,1.26-.63,1.26.172-.115.172-.63.115-1.031a2.211,2.211,0,0,0-.115-.63h0a1.483,1.483,0,0,0-.8-.974,1.427,1.427,0,0,0-1.2-.115l-1.661-2.234a12.8,12.8,0,0,1,2,1.718,2.129,2.129,0,0,1,2.177,1.6.771.771,0,0,0,.745-.573,2.028,2.028,0,0,0-.286-1.547l-2.291-3.036s3.093,2.921,3.208,4.01C426.013,121.213,424.7,121.156,424.7,121.156Z" transform="translate(-418.222 -112.225)" fill="#f39568"/>
          <path id="Path_106" data-name="Path 106" d="M428.5,114a27.081,27.081,0,0,1,2.291,3.093,1.229,1.229,0,0,1-.687,1.6,1.174,1.174,0,0,1-.859-.115v.745s2.062.344,2.062-1.6C431.307,116.749,428.5,114,428.5,114Z" transform="translate(-421.683 -111.541)" fill="#f39568"/>
          <path id="Path_107" data-name="Path 107" d="M433.2,119.187a1.27,1.27,0,0,0,1.088.286c.573-.172.745-.573.573-.974a.713.713,0,0,1,.057.859c-.4.687-1.432.573-1.718.458Z" transform="translate(-423.691 -113.463)" fill="#f39568"/>
        </g>
        <path id="Path_108" data-name="Path 108" d="M430.62,130.1a2.36,2.36,0,0,1-2.291,1.088,1.616,1.616,0,0,0-.229-.745A6.381,6.381,0,0,0,430.62,130.1Z" transform="translate(-419.635 -118.419)" fill="#f39568"/>
      </g>
      <path id="Path_109" data-name="Path 109" d="M390.19,285.233s-2.062-4.525-1.718-7.16c.4-2.578,3.9,1.489,4.353,2.578S392.6,284.774,390.19,285.233Z" transform="translate(-293.143 -180.689)" fill="#6c8c31"/>
      <path id="Path_110" data-name="Path 110" d="M341.014,337.3A16.811,16.811,0,0,1,335,338.79a12.831,12.831,0,0,1,4.124-1.89A8.621,8.621,0,0,1,341.014,337.3Z" transform="translate(-270.316 -206.18)" fill="#2c2a40"/>
      <g id="Group_14" data-name="Group 14" transform="translate(45.412 89.109)">
        <path id="Path_111" data-name="Path 111" d="M353.576,312.8c-.4,1.776.057,3.952-1.2,7.962-.917,2.749-3.723,4.926-6.874,6.243,2.807.8,5.785,1.489,5.785,1.489,4.869-.172,14.034,1.833,14.034,1.833A46.594,46.594,0,0,1,353.576,312.8Z" transform="translate(-320.214 -284.993)" fill="none"/>
        <path id="Path_112" data-name="Path 112" d="M367.081,316.463c-.4-8.191-13.862-29.041-15.981-44.907l-8.477-3.036c-1.146-.344-.63-.115-1.948-.516,0,0-19.991-10.31-28.926,3.265a15.223,15.223,0,0,0,1.6,9.909c1.146,2.119,2,8.649,1.146,9.967a18.787,18.787,0,0,0-3.551.916c-1.489.516-3.838,1.489-5.384,2.119a6.836,6.836,0,0,0-4.01,4.582,6.258,6.258,0,0,0,.172,3.666c1.489,4.353,5.27,4.812,7.733,4.411a63.35,63.35,0,0,1,9.394.745,8.114,8.114,0,0,0,1.718.115,5.877,5.877,0,0,0-2.463,3.551c-.859,4.124,3.15,7.16,3.15,7.16s.4.859,3.609.687,3.208-1.031,5.843,0c2.635,1.088,21.194,8.707,27.323,8.993C364.217,328.434,367.482,324.654,367.081,316.463ZM332.37,307.7s-2.979-.687-5.785-1.489c3.093-1.317,5.957-3.551,6.874-6.243,1.317-4.01.8-6.186,1.2-7.962A46.593,46.593,0,0,0,346.4,309.532S337.238,307.584,332.37,307.7Z" transform="translate(-301.356 -264.255)" fill="#2c2a40"/>
        <g id="Group_10" data-name="Group 10" transform="translate(1.515 5.697)">
          <g id="Group_9" data-name="Group 9">
            <path id="Path_113" data-name="Path 113" d="M318.759,316.072l-.859.172.115.4.859-.172.859-.172-.115-.4Z" transform="translate(-309.938 -292.014)" fill="#5b5b6c"/>
            <path id="Path_114" data-name="Path 114" d="M304,320.859l.229.4,1.547-.859-.172-.4C305.031,320.286,304.516,320.573,304,320.859Z" transform="translate(-304 -293.766)" fill="#5b5b6c"/>
            <path id="Path_115" data-name="Path 115" d="M313.1,317.4l.115.4c.516-.115,1.088-.286,1.718-.4l-.115-.4A10.919,10.919,0,0,0,313.1,317.4Z" transform="translate(-307.888 -292.484)" fill="#5b5b6c"/>
            <path id="Path_116" data-name="Path 116" d="M329.115,304.076h.458c-.057-.573-.115-1.2-.172-1.776l-.4.057C329,302.93,329.057,303.5,329.115,304.076Z" transform="translate(-314.68 -286.204)" fill="#5b5b6c"/>
            <path id="Path_117" data-name="Path 117" d="M322.616,274.2h-.458c-.057.573-.057,1.2-.057,1.776h.458C322.558,275.4,322.558,274.83,322.616,274.2Z" transform="translate(-311.732 -274.2)" fill="#5b5b6c"/>
            <path id="Path_118" data-name="Path 118" d="M328.3,299.233l.4-.057a16.142,16.142,0,0,0-.4-1.776l-.4.115C328.072,298.087,328.186,298.66,328.3,299.233Z" transform="translate(-314.21 -284.111)" fill="#5b5b6c"/>
            <path id="Path_119" data-name="Path 119" d="M308.3,318.773l.172.4a9.329,9.329,0,0,1,1.661-.573l-.115-.4C309.388,318.372,308.816,318.6,308.3,318.773Z" transform="translate(-305.837 -292.997)" fill="#5b5b6c"/>
            <path id="Path_120" data-name="Path 120" d="M327.873,312.845a1.66,1.66,0,0,1-.573.458l.172.4a1.6,1.6,0,0,0,.745-.573,2.745,2.745,0,0,0,.4-.917l-.4-.115A1.787,1.787,0,0,1,327.873,312.845Z" transform="translate(-313.954 -290.391)" fill="#5b5b6c"/>
            <path id="Path_121" data-name="Path 121" d="M327.288,294.461c-.229-.63-.458-1.146-.687-1.661l-.4.229c.229.458.458,1.031.687,1.6Z" transform="translate(-313.484 -282.146)" fill="#5b5b6c"/>
            <path id="Path_122" data-name="Path 122" d="M322.558,279.1H322.1a17.346,17.346,0,0,0,.115,1.776l.458-.057A8.114,8.114,0,0,1,322.558,279.1Z" transform="translate(-311.732 -276.293)" fill="#5b5b6c"/>
            <path id="Path_123" data-name="Path 123" d="M329.616,307.2h-.458v.172a12.959,12.959,0,0,1-.057,1.547l.458.057a13.964,13.964,0,0,0,.057-1.6Z" transform="translate(-314.723 -288.298)" fill="#5b5b6c"/>
            <path id="Path_124" data-name="Path 124" d="M323.345,285.618A7.608,7.608,0,0,1,323,283.9l-.4.057c.115.63.229,1.2.344,1.776Z" transform="translate(-311.946 -278.344)" fill="#5b5b6c"/>
            <path id="Path_125" data-name="Path 125" d="M324.1,288.6l-.4.172a6.711,6.711,0,0,0,.8,1.432c.057.057.057.115.115.115l.344-.229c-.057-.057-.057-.115-.115-.172A5.685,5.685,0,0,1,324.1,288.6Z" transform="translate(-312.416 -280.352)" fill="#5b5b6c"/>
            <path id="Path_126" data-name="Path 126" d="M322.7,315.158l.115.4a14.1,14.1,0,0,0,1.718-.458l-.115-.4A17.725,17.725,0,0,1,322.7,315.158Z" transform="translate(-311.989 -291.502)" fill="#5b5b6c"/>
          </g>
        </g>
        <g id="Group_13" data-name="Group 13" transform="translate(20.932 25.916)">
          <g id="Group_11" data-name="Group 11" transform="translate(13.174)">
            <path id="Path_127" data-name="Path 127" d="M361.358,310.474c-.286-.458-.458-.745-.458-.745l.344-.229s.172.286.458.745Z" transform="translate(-360.9 -309.5)" fill="#5b5b6c"/>
          </g>
          <g id="Group_12" data-name="Group 12" transform="translate(0 1.604)">
            <path id="Path_128" data-name="Path 128" d="M347.3,340.7c.458.115,1.031.229,1.661.4l.115-.4a16.7,16.7,0,0,0-1.661-.4Z" transform="translate(-341.916 -324.262)" fill="#5b5b6c"/>
            <path id="Path_129" data-name="Path 129" d="M342.757,339.6l-.057.4a9.639,9.639,0,0,0,1.146.115c.115,0,.286.057.516.057l.057-.4a2.373,2.373,0,0,0-.573-.057C343.559,339.657,343.158,339.657,342.757,339.6Z" transform="translate(-339.951 -323.963)" fill="#5b5b6c"/>
            <path id="Path_130" data-name="Path 130" d="M351.9,341.9c.516.115,1.088.286,1.661.458l.115-.4c-.573-.172-1.146-.344-1.661-.458Z" transform="translate(-343.881 -324.774)" fill="#5b5b6c"/>
            <rect id="Rectangle_2015" data-name="Rectangle 2015" width="0.458" height="1.718" transform="matrix(0.27, -0.963, 0.963, 0.27, 10.636, 17.863)" fill="#5b5b6c"/>
            <path id="Path_131" data-name="Path 131" d="M361.1,344.5c.573.172,1.088.286,1.661.458l.115-.4c-.573-.172-1.088-.286-1.661-.458Z" transform="translate(-347.811 -325.885)" fill="#5b5b6c"/>
            <path id="Path_132" data-name="Path 132" d="M372.017,325.432a12.579,12.579,0,0,1-.974-1.432l-.344.229c.344.458.63.916.974,1.432Z" transform="translate(-351.912 -317.298)" fill="#5b5b6c"/>
            <path id="Path_133" data-name="Path 133" d="M386.66,344.247a3.755,3.755,0,0,0-.917-1.547l-.344.286a2.923,2.923,0,0,1,.8,1.375Z" transform="translate(-358.192 -325.287)" fill="#5b5b6c"/>
            <path id="Path_134" data-name="Path 134" d="M374.775,329.375,373.744,328l-.344.229,1.031,1.375Z" transform="translate(-353.066 -319.007)" fill="#5b5b6c"/>
            <path id="Path_135" data-name="Path 135" d="M337.957,339.257l-.057.172c.63.115,1.2.229,1.718.286l.057-.4a3.38,3.38,0,0,0-.8-.115A5.245,5.245,0,0,0,337.957,339.257Z" transform="translate(-337.9 -323.792)" fill="#5b5b6c"/>
            <path id="Path_136" data-name="Path 136" d="M362.6,312.529c.286.4.573.916.974,1.432l.344-.229c-.344-.516-.687-1.031-.974-1.432Z" transform="translate(-348.452 -312.3)" fill="#5b5b6c"/>
            <path id="Path_137" data-name="Path 137" d="M380.33,348.557a2.149,2.149,0,0,1-.573-.057l-.057.458c.229,0,.4.057.573.057h.115c.4,0,.8-.057,1.088-.057l-.057-.458A6.577,6.577,0,0,1,380.33,348.557Z" transform="translate(-355.757 -327.765)" fill="#5b5b6c"/>
            <path id="Path_138" data-name="Path 138" d="M383.417,340.231c-.286-.286-.63-.63-.974-1.031l-.344.286c.344.4.687.745.974,1.031l.229.229.286-.286C383.589,340.4,383.475,340.288,383.417,340.231Z" transform="translate(-356.782 -323.792)" fill="#5b5b6c"/>
            <path id="Path_139" data-name="Path 139" d="M380.532,336.917c-.344-.4-.687-.859-1.088-1.317l-.344.286c.4.516.745.916,1.088,1.317Z" transform="translate(-355.501 -322.254)" fill="#5b5b6c"/>
            <path id="Path_140" data-name="Path 140" d="M376.2,332.086c.344.458.687.974,1.031,1.375l.344-.286c-.344-.4-.687-.916-1.031-1.375Z" transform="translate(-354.262 -320.63)" fill="#5b5b6c"/>
            <path id="Path_141" data-name="Path 141" d="M384.4,347.645l.115.4a2.544,2.544,0,0,0,1.6-.916l-.344-.229A2.62,2.62,0,0,1,384.4,347.645Z" transform="translate(-357.765 -327.081)" fill="#5b5b6c"/>
            <path id="Path_142" data-name="Path 142" d="M365.7,345.8c.573.172,1.146.286,1.661.458l.115-.4c-.516-.172-1.088-.286-1.661-.458Z" transform="translate(-349.776 -326.44)" fill="#5b5b6c"/>
            <path id="Path_143" data-name="Path 143" d="M374.9,348.1a11.377,11.377,0,0,0,1.718.344l.057-.4c-.458-.057-1.031-.229-1.661-.344Z" transform="translate(-353.706 -327.423)" fill="#5b5b6c"/>
            <path id="Path_144" data-name="Path 144" d="M368,320.429c.344.458.63.916.974,1.432l.344-.229c-.344-.458-.687-.974-.974-1.432Z" transform="translate(-350.759 -315.675)" fill="#5b5b6c"/>
            <path id="Path_145" data-name="Path 145" d="M366.617,317.632c-.344-.516-.687-.974-.974-1.432l-.344.229c.286.458.63.916.974,1.432Z" transform="translate(-349.605 -313.966)" fill="#5b5b6c"/>
            <path id="Path_146" data-name="Path 146" d="M370.3,347c.573.172,1.146.286,1.661.4l.115-.4c-.516-.115-1.088-.286-1.661-.4Z" transform="translate(-351.741 -326.953)" fill="#5b5b6c"/>
          </g>
        </g>
      </g>
      <path id="Path_147" data-name="Path 147" d="M341.014,337.3A16.811,16.811,0,0,1,335,338.79a12.831,12.831,0,0,1,4.124-1.89A8.621,8.621,0,0,1,341.014,337.3Z" transform="translate(-270.316 -206.18)" fill="#2c2a40"/>
      <g id="Group_16" data-name="Group 16" transform="translate(41.142 23.779)">
        <path id="Path_148" data-name="Path 148" d="M364.354,161.813c-.057,2.749-.172,4.7-.172,4.7a12.259,12.259,0,0,0-1.6.687c-3.723,1.89-8.363,5.843-9.508,9.852a45.965,45.965,0,0,0-.745,8.649c-.057,3.036-.057,6.3,0,9.222v.458c.057,3.666.172,6.644.172,7.5,0,2.348-.458,9.337-.573,12.315-.115,3.036.745,6.243,1.146,11.284.4,5.1-3.322,4.468-3.322,4.468,3.609-1.489,1.718-5.785-.573-6.7-.344-.115-.745-.286-1.2-.458h0a172.011,172.011,0,0,0-24.63-6.129,16.478,16.478,0,0,0-14.835,4.926S310.4,212.1,312,210.043s2.52-8.878,3.208-11.685a8.989,8.989,0,0,0,.172-1.375,49.787,49.787,0,0,0-.8-8.592c-.115-.8-.229-1.317-.229-1.317-.974,1.6-7.275,4.926-10.539,6.53-1.146.573-1.89.916-1.89.916l-2.692-4.067-5.327-8.076s.344-.344,1.432-1.2c.8-.63,1.948-1.489,3.609-2.749,4.067-3.036,8.878-8.477,10.654-9.337a10.989,10.989,0,0,0,4.411-3.036c1.661-1.6,7.618-3.494,11.055-4.525,1.489-.4,2.463-.687,2.463-.687a10.9,10.9,0,0,0,7.962-.516s1.26-.8,2.979-1.833c2.749-1.661,6.7-3.9,8.306-4.01,2.062-.172,10.94-2.635,14.721-3.723,1.031-.286,1.661-.458,1.661-.458C364.24,153.565,364.411,158.319,364.354,161.813Z" transform="translate(-293.9 -150.243)" fill="#19ab7c"/>
        <g id="Group_15" data-name="Group 15" transform="translate(0.115)">
          <path id="Path_149" data-name="Path 149" d="M354.786,171.244a6.356,6.356,0,0,1-6.186-3.609c1.489-.4,2.463-.687,2.463-.687a10.9,10.9,0,0,0,7.962-.516s1.26-.8,2.979-1.833C362.519,168.724,359.369,171.015,354.786,171.244Z" transform="translate(-317.383 -156.352)" fill="#2c2a40"/>
          <path id="Path_150" data-name="Path 150" d="M304.009,216.63c-1.146.573-1.89.916-1.89.916L294.1,205.4s.344-.344,1.432-1.2Z" transform="translate(-294.1 -173.269)" fill="#2c2a40"/>
          <path id="Path_151" data-name="Path 151" d="M414.72,166.467a12.261,12.261,0,0,0-1.6.687,61.972,61.972,0,0,0-.916-16.5c1.031-.286,1.661-.458,1.661-.458C415.522,156.1,414.72,166.467,414.72,166.467Z" transform="translate(-344.553 -150.2)" fill="#2c2a40"/>
        </g>
        <path id="Path_152" data-name="Path 152" d="M367.89,217.937C361.3,215.073,345.207,209.86,331,220a49.787,49.787,0,0,0-.8-8.592c2.177-1.375,12.487-7.561,22.4-7.217a32.712,32.712,0,0,1,15.294,4.525C367.833,211.751,367.833,215.016,367.89,217.937Z" transform="translate(-309.407 -173.259)" fill="#fae707"/>
      </g>
      <g id="Group_18" data-name="Group 18" transform="translate(64.27)">
        <path id="Path_153" data-name="Path 153" d="M338.208,129.068a2.406,2.406,0,0,0-2.921,2.463c-.286,2.578,3.036,3.551,3.036,3.551S339.354,130.729,338.208,129.068Z" transform="translate(-334.702 -117.375)" fill="#2c2a40"/>
        <path id="Path_154" data-name="Path 154" d="M340.408,136.768a2.406,2.406,0,0,0-2.921,2.463c-.286,2.578,3.036,3.551,3.036,3.551S341.554,138.372,340.408,136.768Z" transform="translate(-335.642 -120.665)" fill="#2c2a40"/>
        <path id="Path_155" data-name="Path 155" d="M337.327,121.01a4.838,4.838,0,0,1-2.749-6.186c1.432-4.582,6.816-2.749,6.816-2.749a3.7,3.7,0,0,1,3.78-3.38,5.082,5.082,0,0,1,4.869,2.692s2.406-2.406,5.384-1.661c2.921.745,3.952,4.3,3.036,5.957a3.369,3.369,0,0,1,3.265,1.833c1.432,2.177,1.776,5.384,0,6.587a5.54,5.54,0,0,1,.974,5.442,4.608,4.608,0,0,1-4.239,3.036s.573,4.067-3.379,5.041-3.551-2.52-3.551-2.52S344.658,119.177,337.327,121.01Z" transform="translate(-334.279 -108.687)" fill="#2c2a40"/>
        <g id="Group_17" data-name="Group 17" transform="translate(2.182 9)">
          <path id="Path_156" data-name="Path 156" d="M360.909,153.086l.573,2.807a1.812,1.812,0,0,1-.745,1.89c-5.041,3.666-8.936,1.146-9.738-.115.63-.573,11.456-10.883,11.628-16.668C362.685,141,363.945,148.217,360.909,153.086Z" transform="translate(-343.604 -131.492)" fill="#f9b587"/>
          <path id="Path_157" data-name="Path 157" d="M339.545,135.512a7.405,7.405,0,0,0-.229,2.52,6.758,6.758,0,0,0,.516,2.119l1.776,4.582a4.347,4.347,0,0,0,4.181,2.749,14.833,14.833,0,0,0,7.332-2.177c4.582-3.036,4.582-10.024,4.582-10.024s-.4-7.1-6.243-9.795c-5.9-2.692-11.914.458-11.914.458l-.687,4.983a4.335,4.335,0,0,0-.057.859,8.877,8.877,0,0,0,.4,2.749Z" transform="translate(-338.392 -124.4)" fill="#f9b587"/>
          <path id="Path_158" data-name="Path 158" d="M348.5,133.457s3.322-3.208,5.613-.344l-.4.745s-2.291-2-4.983.516Z" transform="translate(-342.536 -127.614)" fill="#2c2a40"/>
          <path id="Path_159" data-name="Path 159" d="M339.5,140.98a7.405,7.405,0,0,0-.229,2.52c.687-.516,2.119-.916,5.041-.516a5.848,5.848,0,0,0-3.093-1.26.618.618,0,0,1-.573-.8l.859-2.635a1.815,1.815,0,0,0-.974-.745,11.7,11.7,0,0,0-1.833-.344,8.877,8.877,0,0,0,.4,2.749Z" transform="translate(-338.349 -129.868)" fill="#f39568"/>
          <path id="Path_160" data-name="Path 160" d="M338.61,135.793a6.881,6.881,0,0,1,2,.4l.115.859a6.035,6.035,0,0,0-2.119-.344c-.286,0-.573-.229-.516-.458h0A.438.438,0,0,1,338.61,135.793Z" transform="translate(-338.087 -129.264)" fill="#2c2a40"/>
          <path id="Path_161" data-name="Path 161" d="M342.378,150.345l7.847-.745s-.916,4.239-5.1,4.124C341.862,153.667,342.378,150.345,342.378,150.345Z" transform="translate(-339.907 -135.166)" fill="#fff"/>
          <path id="Path_162" data-name="Path 162" d="M351.5,158.889s4.869-.63,7.5-7.389a8.1,8.1,0,0,1-.229,6.129c-1.432,3.609-7.676,4.525-7.676,4.525Z" transform="translate(-343.646 -135.977)" fill="#f39568"/>
          <path id="Path_163" data-name="Path 163" d="M367.874,139.9s1.489-2.807,3.666-1.547.974,7.733-2.177,6.53C366.213,143.627,367.874,139.9,367.874,139.9Z" transform="translate(-350.625 -130.224)" fill="#f9b587"/>
        </g>
        <path id="Path_164" data-name="Path 164" d="M350.2,137.932s.458-1.432,1.718-1.432a2.119,2.119,0,0,1,2.177,1.547A2.354,2.354,0,0,0,350.2,137.932Z" transform="translate(-341.08 -120.569)" fill="#2c2a40"/>
        <path id="Path_165" data-name="Path 165" d="M341.5,140.274s-1.26-1.489-2,.344A1.331,1.331,0,0,1,341.5,140.274Z" transform="translate(-336.509 -121.937)" fill="#2c2a40"/>
        <path id="Path_166" data-name="Path 166" d="M339.375,125.455a5.5,5.5,0,0,0,3.952-.687c1.776-1.26,1.375-2.348,1.375-2.348a3.039,3.039,0,0,0,3.15,1.661c2.463-.172,2.749-.859,2.749-.859s-.115,2.749,1.89,3.15a3.367,3.367,0,0,0,3.208-1.2s-8.878-7.79-11.914-5.728S338.172,122.591,339.375,125.455Z" transform="translate(-336.327 -113.133)" fill="#2c2a40"/>
        <path id="Path_167" data-name="Path 167" d="M366.04,130.215s-1.2,2.348.859,3.666a11.98,11.98,0,0,1-.745,3.666H367.7a8,8,0,0,0,1.031-3.723C368.617,132.105,368.617,129.528,366.04,130.215Z" transform="translate(-347.698 -117.835)" fill="#2c2a40"/>
      </g>
      <path id="Path_168" data-name="Path 168" d="M437.659,124.3a3.122,3.122,0,0,1-.859,1.26s.859-.057,1.146-.516Z" transform="translate(-313.806 -115.357)" fill="#f39568"/>
      <path id="Path_169" data-name="Path 169" d="M302.3,357.568Z" transform="translate(-256.347 -214.991)" fill="#a5c723"/>
      <path id="Path_170" data-name="Path 170" d="M351.789,245.763a172.009,172.009,0,0,0-24.63-6.129,16.478,16.478,0,0,0-14.835,4.926s1.89-10.482,3.494-12.544,2.52-8.878,3.208-11.685a8.98,8.98,0,0,0,.172-1.375,49.787,49.787,0,0,0-.8-8.592c-.115-.8-.229-1.317-.229-1.317-.974,1.6-7.275,4.926-10.539,6.53-1.146.573-1.89.916-1.89.916l-2.692-4.067-.344-1.776s7.045-3.838,16.726-9.05c0,0,4.353,5.5,4.3,11.857-.115,11.341-1.718,19.017,5.27,21.652C335.808,237.629,350.872,245.247,351.789,245.763Z" transform="translate(-256.518 -148.38)" fill="#2c2a40" opacity="0.2"/>
      <path id="Path_171" data-name="Path 171" d="M406.806,170.4c-.057,2.749-.172,4.7-.172,4.7a12.263,12.263,0,0,0-1.6.687c-3.723,1.89-8.363,5.843-9.508,9.852a45.962,45.962,0,0,0-.745,8.649c-.057,3.036-.057,6.3,0,9.222v.458s-2.463-17.012-1.088-22C395.178,177.044,406.577,170.572,406.806,170.4Z" transform="translate(-295.21 -135.051)" fill="#2c2a40" opacity="0.2"/>
      <path id="Path_172" data-name="Path 172" d="M330.281,171.8c-2.062,12.258-1.661,26.75-1.661,26.75a12.1,12.1,0,0,1-.859,7.045c-7.847-8.477-2.463-33.8.458-38.893,3.609-6.3,8.821,1.088,8.821,1.088l-2.692.859s-.916-1.317-2.062-1.031C331.14,167.849,330.281,171.8,330.281,171.8Z" transform="translate(-265.483 -132.385)" fill="#2c2a40"/>
      <path id="Path_173" data-name="Path 173" d="M373.829,158.656s.8-6.186,5.327-6.358c7.16-.229,8.936,18.559,9.508,28.754s-2.234,12.2-2.234,12.2l-.115-5.785s-3.723-25.031-5.556-29.442c-2-4.812-3.723-2.463-5.556,0l-1.6.745" transform="translate(-286.806 -127.317)" fill="#2c2a40"/>
    </g>
    <g id="Group_30" data-name="Group 30" transform="translate(39.559 58.581)">
      <g id="Group_21" data-name="Group 21">
        <path id="Path_174" data-name="Path 174" d="M77.9,118.451c-11.571-2.979-20.621-13.919-23.026-16.554a3.989,3.989,0,0,1-.687-1.146h0C51.9,96,48.174,80.36,47.372,76.809a2.521,2.521,0,0,1-.115-.573.251.251,0,0,0-.057-.172L53.787,73.2A28.683,28.683,0,0,0,57.51,84.6a87.475,87.475,0,0,1,6.072,13.174,74.5,74.5,0,0,1,12.831,8.707C79.849,113.754,77.9,118.451,77.9,118.451Z" transform="translate(-44.259 -64.826)" fill="#f9b587"/>
        <path id="Path_175" data-name="Path 175" d="M83.114,139c-11.571-2.979-20.621-13.919-23.026-16.554A3.989,3.989,0,0,1,59.4,121.3c.115.115,8.707,7.446,11.914,9.337,3.265,1.89,6.931,3.551,8.707,2.291a5.076,5.076,0,0,0,1.6-5.843C85.061,134.3,83.114,139,83.114,139Z" transform="translate(-49.471 -85.375)" fill="#f39568"/>
        <g id="Group_20" data-name="Group 20">
          <path id="Path_176" data-name="Path 176" d="M45.407,70.162a42.416,42.416,0,0,0,6.243-1.432.781.781,0,0,0,.286-.687,6.909,6.909,0,0,0,1.547-2.406c.172-.516-.4-.974-1.031-1.375.573-1.088.63-4.067-.687-5.212a2.191,2.191,0,0,0-2.921.286,1.731,1.731,0,0,0-2.749.458c-.8-.516-2.234.516-2.234.516-.745-.4-1.547.4-1.776,1.088-.172.745.8,6.759,1.317,7.446A5.339,5.339,0,0,0,45.407,70.162Z" transform="translate(-42.065 -58.581)" fill="#f9b587"/>
          <path id="Path_177" data-name="Path 177" d="M53.121,67.271a.894.894,0,0,0,1.375.286c-.229.057-.573-.286-.859-.573a1.759,1.759,0,0,1-.4-.458h0a1.362,1.362,0,0,1-.229-1.26c.229-.859.687-.974.687-.974l-.63-2.692a11.127,11.127,0,0,0,.057,2.635,2.089,2.089,0,0,0-.172,2.692.8.8,0,0,1-.859.229,2.264,2.264,0,0,1-1.031-1.26L50.2,62.23s.229,4.239,1.031,5.041A1.218,1.218,0,0,0,53.121,67.271Z" transform="translate(-45.54 -59.871)" fill="#f39568"/>
          <path id="Path_178" data-name="Path 178" d="M46.3,64.7a26.3,26.3,0,0,0,.916,3.723,1.222,1.222,0,0,0,1.661.516,1.018,1.018,0,0,0,.458-.745l.573.516s-1.088,1.776-2.578.516C46.529,68.6,46.3,64.7,46.3,64.7Z" transform="translate(-43.874 -61.195)" fill="#f39568"/>
          <path id="Path_179" data-name="Path 179" d="M46.361,71.9a1.156,1.156,0,0,1-.516,1.031c-.573.344-.916.172-1.146-.172a.763.763,0,0,0,.63.63c.8.115,1.317-.745,1.489-1.031Z" transform="translate(-43.191 -64.271)" fill="#f39568"/>
        </g>
        <path id="Path_180" data-name="Path 180" d="M48.747,78.672a2.214,2.214,0,0,1-1.432.4A2.521,2.521,0,0,1,47.2,78.5,4.469,4.469,0,0,0,48.747,78.672Z" transform="translate(-44.259 -67.09)" fill="#f39568"/>
        <path id="Path_181" data-name="Path 181" d="M58.017,76a3.8,3.8,0,0,1-1.317.859,2.416,2.416,0,0,0,1.375-.344Z" transform="translate(-48.317 -66.022)" fill="#f39568"/>
        <path id="Path_182" data-name="Path 182" d="M73.237,116.1a12.177,12.177,0,0,1-3.437,2.062,4.557,4.557,0,0,0,4.64-1.432Z" transform="translate(-53.913 -83.153)" fill="#f39568"/>
      </g>
      <path id="Path_183" data-name="Path 183" d="M87.58,189.762a1.968,1.968,0,0,0,1.26.687c.4,6.072,1.2,11.227,2.406,13.461,3.723,6.816,27.953,7.275,32.993,1.317s3.723-40.84-4.7-45.308c-6.3-3.322-18.444-2.406-24.172-1.776a5.944,5.944,0,0,0-5.041,4.353,78.36,78.36,0,0,0-1.718,15.752,3.641,3.641,0,0,0-1.031.344C86.434,179.222,86.892,188.731,87.58,189.762Z" transform="translate(-61.211 -100.852)" fill="#2c2a40"/>
      <path id="Path_184" data-name="Path 184" d="M217.195,154.041s-1.833,6.874-4.754,14.492c-.458,1.146-.916,2.291-1.375,3.494-2,4.754-4.353,9.451-6.874,12.6a11.873,11.873,0,0,1-4.181,3.609s-4.124.573-6.988-1.146-14.148-7.275-15.523-9.68c0,0,4.353-6.129,8.42-6.7,0,0,1.547.8,3.666,2.062a91.05,91.05,0,0,1,8.076,5.27,8.419,8.419,0,0,1,.745.573s.229-.4.573-1.146c.974-1.833,3.036-5.613,5.556-9.623.516-.859,1.088-1.718,1.661-2.578a3.477,3.477,0,0,1,.4-.573c4.468-6.644,5.041-11.456,5.041-11.456S215.992,152.781,217.195,154.041Z" transform="translate(-99.923 -98.984)" fill="#f9b587"/>
      <path id="Path_185" data-name="Path 185" d="M232.647,177.565c-.458,1.146-.916,2.291-1.375,3.494l-6.473-4.181c.516-.859,1.088-1.718,1.661-2.578Z" transform="translate(-120.13 -108.016)" fill="#f39568"/>
      <path id="Path_186" data-name="Path 186" d="M204.092,197.719a11.873,11.873,0,0,1-4.181,3.609s-4.124.573-6.988-1.146-14.148-7.275-15.523-9.68c0,0,4.353-6.129,8.42-6.7,0,0,1.547.8,3.666,2.062-.229.859-1.26,3.952-3.036,5.442-2.062,1.776,2.749,5.785,6.931,7.561S200.484,200.583,204.092,197.719Z" transform="translate(-99.88 -112.075)" fill="#f39568"/>
      <path id="Path_187" data-name="Path 187" d="M213.273,201.343c.458-1.948-.573-5.27-.573-5.27a8.42,8.42,0,0,1,.745.573s.229-.4.573-1.146C214.476,199.739,213.273,201.343,213.273,201.343Z" transform="translate(-114.961 -117.073)" fill="#f39568"/>
      <path id="Path_188" data-name="Path 188" d="M171.684,368.393c-3.838-2.234-5.212-4.411-7.5-8.248-1.375-2.291-2.635-4.181-3.437-5.384a2.643,2.643,0,0,1-.172-2.749c.057-.057.057-.115.115-.229.916-1.718,2.406-4.124,3.723-4.181l1.489.8,5.041,2.749s2.234,5.1,2.119,7.275c-.057,1.948,3.666,6.415,4.811,8.936a3.949,3.949,0,0,1,.229.573.726.726,0,0,1,.057.344C178.386,370.512,175.522,370.626,171.684,368.393Z" transform="translate(-92.561 -182.05)" fill="#b0b1ca"/>
      <path id="Path_189" data-name="Path 189" d="M171.684,371.511c-3.838-2.234-5.212-4.411-7.5-8.248-1.375-2.291-2.635-4.181-3.437-5.384a2.643,2.643,0,0,1-.172-2.749c.057-.057.057-.115.115-.229a10.785,10.785,0,0,0,2.119,4.411,78.139,78.139,0,0,1,4.869,7.446c.63.859,4.869,4.582,7.618,5.1,2.177.458,2.578,0,2.749-.745a.726.726,0,0,1,.057.344C178.386,373.63,175.522,373.745,171.684,371.511Z" transform="translate(-92.561 -185.169)" fill="#2c2a40"/>
      <path id="Path_190" data-name="Path 190" d="M171.684,368.393c-3.838-2.234-5.212-4.411-7.5-8.248-1.375-2.291-2.635-4.181-3.437-5.384a2.643,2.643,0,0,1-.172-2.749c.057-.057.057-.115.115-.229.916-1.718,2.406-4.124,3.723-4.181l1.489.8s-2.864,2.578-1.948,5.384c.916,2.864,3.952,7.1,5.556,8.993,1.547,1.833,4.983,4.983,8.363,4.582a3.951,3.951,0,0,1,.229.573.726.726,0,0,1,.057.344C178.386,370.512,175.522,370.626,171.684,368.393Z" transform="translate(-92.561 -182.05)" fill="#2c2a40" opacity="0.2"/>
      <path id="Path_191" data-name="Path 191" d="M164.572,389.669c-.115,2.578-1.89,4.869-5.9,4.239-4.525-.745-5.785-4.525-6.816-6.816s-3.551-10.31-4.64-13.461a9.863,9.863,0,0,1-.115-4.983,15.339,15.339,0,0,1,.516-1.948l1.6.229,9.222,1.375a26.9,26.9,0,0,1,2.119,7.79c.344,3.551,2.692,8.134,3.609,11.17h0a8,8,0,0,1,.344,1.375A6.228,6.228,0,0,1,164.572,389.669Z" transform="translate(-86.824 -190.21)" fill="#b0b1ca"/>
      <path id="Path_192" data-name="Path 192" d="M164.572,389.669c-.115,2.578-1.89,4.869-5.9,4.239-4.525-.745-5.785-4.525-6.816-6.816s-3.551-10.31-4.64-13.461a9.863,9.863,0,0,1-.115-4.983,15.339,15.339,0,0,1,.516-1.948l1.6.229a19.8,19.8,0,0,0,1.833,8.535c1.6,3.036,2.749,9.68,5.5,12.659s7.733,3.494,7.618-.8a8,8,0,0,1,.344,1.375A5.242,5.242,0,0,1,164.572,389.669Z" transform="translate(-86.824 -190.21)" fill="#2c2a40" opacity="0.2"/>
      <path id="Path_193" data-name="Path 193" d="M164.572,391.122c-.115,2.578-1.89,4.869-5.9,4.239-4.525-.745-5.785-4.525-6.816-6.816s-3.551-10.31-4.64-13.461a9.863,9.863,0,0,1-.115-4.983,60.949,60.949,0,0,0,2.864,9.566c2.291,5.9,4.124,11.055,5.728,12.773S163.656,395.3,164.572,391.122Z" transform="translate(-86.824 -191.662)" fill="#2c2a40"/>
      <path id="Path_194" data-name="Path 194" d="M95.368,150.4l3.609,1.146s-.63,2.578-1.661,2.578S95.082,153.55,95.368,150.4Z" transform="translate(-64.818 -97.806)" fill="#00497b"/>
      <g id="Group_26" data-name="Group 26" transform="translate(38.34 108.153)">
        <path id="Path_195" data-name="Path 195" d="M174.6,303.038c.687,1.776.057,3.551-.745,6.473,3.093-4.468,8.248-11.571,8.248-11.571L167.1,293.3S173.859,301.09,174.6,303.038Z" transform="translate(-133.82 -267.006)" fill="none"/>
        <path id="Path_196" data-name="Path 196" d="M175.616,272.315a3.913,3.913,0,0,0-1.031-1.833c-1.547-1.776-6.129-6.53-15.351-12.029-11.742-6.988-13.919-6.415-19.819-10.769,0,0-20.048-2.234-28.3,5.728l-.229.229a10.693,10.693,0,0,0-1.89,2.578s0,10.425,4.124,14.205,17.012,17.241,18.215,17.069c0,0,.115,2.062,1.661,2.177,0,0-2.119,8.535-1.26,12.2,0,0-1.317,3.093-.687,5.27.687,2.234-.172,4.411-.172,5.785s1.146,7.332,4.926,8.535c3.723,1.26,7.9-.115,8.191-3.38s-.458-5.384-.172-7.217c.057-.516.4-1.948.916-3.9a9.161,9.161,0,0,0,4.3,1.375c.974-.172,2.979-5.843,4.239-6.243s5.671-5.843,8.821-8.936C165.134,290.244,177.85,280.792,175.616,272.315ZM142.28,273.69l15.007,4.64s-5.155,7.1-8.248,11.571c.8-2.921,1.432-4.754.745-6.473C149.039,281.48,142.28,273.69,142.28,273.69Z" transform="translate(-109 -247.396)" fill="#2c2a40"/>
        <g id="Group_24" data-name="Group 24" transform="translate(1.948 5.902)">
          <g id="Group_22" data-name="Group 22">
            <path id="Path_197" data-name="Path 197" d="M113.087,258.616l-.573.115a6.017,6.017,0,0,1-.115-.745l.229-.229.286-.057C112.973,257.7,113.03,258.044,113.087,258.616Z" transform="translate(-112.4 -257.7)" fill="#5b5b6c"/>
          </g>
          <g id="Group_23" data-name="Group 23" transform="translate(0.344 2.234)">
            <path id="Path_198" data-name="Path 198" d="M113.573,261.6l-.573.115c.115.63.229,1.26.344,1.833l.573-.115C113.8,262.8,113.687,262.173,113.573,261.6Zm.63,3.093-.573.115c.115.63.286,1.26.4,1.833l.573-.115C114.489,265.953,114.375,265.323,114.2,264.693Zm.745,3.093-.573.172c.172.63.344,1.26.516,1.833l.573-.172C115.291,269.046,115.119,268.416,114.948,267.786Zm.916,3.036-.516.172a18.534,18.534,0,0,0,.745,1.776l.516-.286A15.664,15.664,0,0,1,115.864,270.822Zm1.432,2.692-.4.4c.286.286.745.745,1.317,1.375l.4-.4C117.983,274.259,117.582,273.8,117.3,273.514Zm2.234,2.234-.4.4c.4.4.859.859,1.375,1.317l.4-.4C120.389,276.607,119.931,276.149,119.53,275.748Zm2.291,2.234-.4.4c.458.4.916.859,1.375,1.317l.4-.4C122.738,278.841,122.279,278.383,121.821,277.982Zm2.348,2.177-.4.4c.458.4.916.859,1.375,1.317l.4-.4A15.245,15.245,0,0,1,124.17,280.159Zm2.291,2.234-.4.4c.458.458.916.859,1.375,1.317l.4-.4C127.377,283.252,126.919,282.794,126.461,282.393Zm2.348,2.177-.4.4c.458.458.916.859,1.375,1.26l.4-.4C129.726,285.428,129.267,284.97,128.809,284.569Zm2.348,2.119-.4.4c.516.458.974.859,1.432,1.26l.4-.458A6.949,6.949,0,0,1,131.158,286.689Zm2.348,2.119-.4.458c.573.516,1.088.916,1.432,1.2l.344-.458C134.594,289.724,134.079,289.323,133.506,288.808Zm2.463,1.948-.229.516a1.529,1.529,0,0,1,.8,1.317l.573-.115A2.206,2.206,0,0,0,135.969,290.755Zm1.317,3.036-.573.057a12.015,12.015,0,0,0,.344,1.89l.573-.172C137.458,294.994,137.4,294.307,137.287,293.791Zm-.115,3.15c-.057.458-.115,1.088-.229,1.833l.573.115c.115-.8.229-1.375.286-1.89Zm-.516,3.093c-.115.458-.172.974-.286,1.489l-.057.4.573.115.057-.4a13.638,13.638,0,0,0,.286-1.489Zm-.687,3.15a16.323,16.323,0,0,0-.344,1.833l.573.115c.115-.516.229-1.146.344-1.833Zm.057,3.208-.573-.057c-.057.63-.115,1.2-.115,1.661v.286h.573v-.229C135.912,307.538,135.969,307.023,136.026,306.393Zm-.057,3.15H135.4v1.833h.573v-.917A2.465,2.465,0,0,0,135.969,309.543Zm-.63,3.15c0,.344-.057.687-.057,1.031,0,.286-.057.573-.057.859l.573.057c0-.286.057-.573.057-.859,0-.344.057-.687.057-1.031Zm.458,4.754V315.9h-.573v1.89h.573Zm-.63,1.6c-.057.516-.172,1.146-.286,1.833l.573.115c.115-.687.229-1.317.286-1.89Zm-.573,3.093c-.115.573-.286,1.2-.4,1.833l.573.115c.172-.63.286-1.26.458-1.833Z" transform="translate(-113 -261.6)" fill="#5b5b6c"/>
          </g>
        </g>
        <g id="Group_25" data-name="Group 25" transform="translate(31.046 21.769)">
          <path id="Path_199" data-name="Path 199" d="M163.2,285.973s.687.229,1.776.573l.172-.573c-1.088-.4-1.776-.573-1.776-.573Z" transform="translate(-163.2 -285.4)" fill="#5b5b6c"/>
          <path id="Path_200" data-name="Path 200" d="M170.448,287.83c-.63-.229-1.26-.4-1.776-.63l-.172.573c.516.172,1.146.4,1.776.63Z" transform="translate(-165.464 -286.169)" fill="#5b5b6c"/>
          <path id="Path_201" data-name="Path 201" d="M178.2,327.247l.458.344,1.088-1.547-.458-.344Z" transform="translate(-169.608 -302.616)" fill="#5b5b6c"/>
          <rect id="Rectangle_2016" data-name="Rectangle 2016" width="1.89" height="0.573" transform="matrix(0.575, -0.818, 0.818, 0.575, 6.767, 27.237)" fill="#5b5b6c"/>
          <path id="Path_202" data-name="Path 202" d="M173.2,335.144a5.557,5.557,0,0,0,.057.974l.687-.974-.458-.344Z" transform="translate(-167.472 -306.504)" fill="#5b5b6c"/>
          <path id="Path_203" data-name="Path 203" d="M175.648,289.63c-.63-.229-1.2-.4-1.776-.63l-.172.573c.573.172,1.146.4,1.776.63Z" transform="translate(-167.686 -286.938)" fill="#5b5b6c"/>
          <path id="Path_204" data-name="Path 204" d="M191.448,295.03c-.573-.172-1.146-.4-1.776-.63l-.172.516c.63.229,1.2.458,1.776.63Z" transform="translate(-174.435 -289.245)" fill="#5b5b6c"/>
          <path id="Path_205" data-name="Path 205" d="M180.948,291.43c-.573-.229-1.2-.4-1.776-.63l-.172.573c.573.229,1.2.4,1.776.63Z" transform="translate(-169.95 -287.707)" fill="#5b5b6c"/>
          <path id="Path_206" data-name="Path 206" d="M191.6,309.675l.4.4c.4-.4.8-.916,1.26-1.375l-.458-.4A13.785,13.785,0,0,1,191.6,309.675Z" transform="translate(-175.333 -295.183)" fill="#5b5b6c"/>
          <path id="Path_207" data-name="Path 207" d="M195.3,305.489l.458.344a17.63,17.63,0,0,0,1.146-1.489l-.458-.344C196.1,304.458,195.758,304.916,195.3,305.489Z" transform="translate(-176.913 -293.346)" fill="#5b5b6c"/>
          <path id="Path_208" data-name="Path 208" d="M196.648,296.987c-.4-.172-1.031-.4-1.776-.687l-.172.516c.745.286,1.317.516,1.776.687Z" transform="translate(-176.657 -290.056)" fill="#5b5b6c"/>
          <path id="Path_209" data-name="Path 209" d="M199.459,299.1l-.516.172a2.48,2.48,0,0,1,.057.286,3.478,3.478,0,0,1-.4,1.26l.516.286a3.464,3.464,0,0,0,.516-1.547C199.516,299.444,199.516,299.272,199.459,299.1Z" transform="translate(-178.323 -291.253)" fill="#5b5b6c"/>
          <path id="Path_210" data-name="Path 210" d="M181.4,322.747l.458.286,1.088-1.489-.458-.344Z" transform="translate(-170.975 -300.694)" fill="#5b5b6c"/>
          <path id="Path_211" data-name="Path 211" d="M187.9,313.875l.458.4c.344-.4.687-.8,1.26-1.375l-.4-.4A13.916,13.916,0,0,0,187.9,313.875Z" transform="translate(-173.752 -296.977)" fill="#5b5b6c"/>
          <path id="Path_212" data-name="Path 212" d="M185.516,316.929l-.916,1.317.458.344.916-1.317c.057-.057.115-.172.172-.229l-.458-.344A.79.79,0,0,0,185.516,316.929Z" transform="translate(-172.342 -298.771)" fill="#5b5b6c"/>
          <path id="Path_213" data-name="Path 213" d="M184.2,293.173c.63.229,1.2.4,1.776.63l.172-.573c-.573-.229-1.146-.4-1.776-.63Z" transform="translate(-172.171 -288.476)" fill="#5b5b6c"/>
        </g>
      </g>
      <path id="Path_214" data-name="Path 214" d="M153.436,162.7c-.687,2.979-3.551,5.728-5.785,7.5h0a25.95,25.95,0,0,1-2.921,2l-1.375-1.146-4.181-3.609-2,4.124c-2,4.124-1.432,14.721-1.661,17.757-.229,2.635,3.838,8.821,4.7,10.883a.963.963,0,0,1,.115.63c-.344.859-10.368,2.177-16.9,0s-19.7,5.728-20.162,5.613c-.458-.172-.8-19.418-2.807-28.01s1.317-31.046,1.317-31.046l-2.692-.859-1.2-.4c-3.551.172-2.406-4.01-2.406-4.01s.115,4.239,2.291,3.15c.974-.516.916-3.38.573-6.415a62.922,62.922,0,0,0-1.317-7.675c.057,0,.687.172,1.718.458,3.437.974,11,3.208,13.862,4.926.859.516,2.921,2,4.525,3.15,1.2.859,2.119,1.547,2.119,1.547,5.671,3.093,7.446,2.921,12.086,4.3.229.057.4.115.63.172,5.613,1.661,12.029,3.666,14.377,7.675a61.379,61.379,0,0,0,6.415,8.363C153.149,162.36,153.436,162.7,153.436,162.7Z" transform="translate(-64.804 -89.604)" fill="#9825b8"/>
      <path id="Path_215" data-name="Path 215" d="M98.977,146.651l-1.2-.4c-3.551.172-2.406-4.01-2.406-4.01s.115,4.239,2.291,3.15c.974-.516.916-3.379.573-6.415a62.919,62.919,0,0,0-1.317-7.675c.057,0,.687.172,1.718.458C99.493,135.252,100.982,142.871,98.977,146.651Z" transform="translate(-64.761 -89.647)" fill="#2c2a40"/>
      <path id="Path_216" data-name="Path 216" d="M189.281,185.346c-.687,2.979-3.551,5.728-5.785,7.5h0a25.949,25.949,0,0,1-2.921,2l-1.375-1.146a28.268,28.268,0,0,0,9.05-9.508Z" transform="translate(-100.649 -112.246)" fill="#2c2a40"/>
      <path id="Path_217" data-name="Path 217" d="M146.659,152.355c-.916,2.406-2.291,4.582-9.337,2.864-7.962-1.948-3.609-8.019-3.609-8.019,1.2.859,1.317.974,1.317.974,5.671,3.093,5.785,2.463,10.425,3.838C145.686,152.069,146.488,152.3,146.659,152.355Z" transform="translate(-80.71 -96.439)" fill="#2c2a40"/>
      <path id="Path_218" data-name="Path 218" d="M176.778,193.661a25.952,25.952,0,0,1-2.921,2l-5.5-4.754-2,4.124c-2,4.124-1.432,14.721-1.661,17.757-3.952-9.394,2.979-26.692,2.979-26.692C169.56,190.052,176.663,193.6,176.778,193.661Z" transform="translate(-93.931 -113.057)" fill="#2c2a40" opacity="0.2"/>
      <path id="Path_219" data-name="Path 219" d="M140.176,206.777c-.344.859-10.368,2.177-16.9,0s-19.7,5.728-20.162,5.613c-.458-.172-.8-19.418-2.807-28.01s1.317-31.046,1.317-31.046l-3.952-1.26c-3.551.172-2.406-4.01-2.406-4.01s.115,4.239,2.291,3.15c.974-.516.916-3.379.573-6.415,0,0,6.874,4.926,10.826,6.072,0,0-1.088,7.045-2.177,16.267-1.031,9.222-.4,15.523,1.718,21.938s6.816,12.6,13.4,13.289c6.53.687,12.945,5.27,18.158,3.723C140.176,206.433,140.233,206.662,140.176,206.777Z" transform="translate(-64.718 -95.414)" fill="#2c2a40" opacity="0.2"/>
      <g id="Group_27" data-name="Group 27" transform="translate(52.367 22.006)">
        <path id="Path_220" data-name="Path 220" d="M158.412,109.315h0a1.272,1.272,0,0,1-.286.229L136.531,117.1s-3.208-1.489-3.036-7.1a7.416,7.416,0,0,1,4.181-6.644,3.706,3.706,0,0,1-.458-.516.408.408,0,0,1,.286-.63,2.36,2.36,0,0,1,.687.057,3.868,3.868,0,0,1-.115-.8.37.37,0,0,1,.573-.344,2.612,2.612,0,0,1,.916.8v-.057a12.018,12.018,0,0,1,7.847-3.551c1.6-.115,3.609-.229,5.556-.458,3.78-.4,6.7.286,7.79-.859C160.989,96.942,165.629,104.733,158.412,109.315Z" transform="translate(-133.488 -96.999)" fill="#2c2a40"/>
        <path id="Path_221" data-name="Path 221" d="M175.157,116.1s2.234,5.155-1.432,8.248C173.667,124.348,173.152,118.162,175.157,116.1Z" transform="translate(-150.634 -105.159)" fill="#2c2a40"/>
        <path id="Path_222" data-name="Path 222" d="M146,143.674l-.115.115a6.039,6.039,0,0,1-2.119,1.031c-1.89.573-6.014-1.26-7.79-2.119a1.1,1.1,0,0,1-.516-1.317,23.207,23.207,0,0,0,1.489-8.363,23.913,23.913,0,0,1,1.776-8.42c-.458,2.062.344,5.041,1.547,8.019A72.38,72.38,0,0,0,146,143.674Z" transform="translate(-134.305 -108.79)" fill="#f9b587"/>
        <path id="Path_223" data-name="Path 223" d="M157.709,125.222a7.493,7.493,0,0,1-.4,2.52,9.254,9.254,0,0,1-.974,2l-2.864,4.067a4.386,4.386,0,0,1-4.754,1.661,14.341,14.341,0,0,1-6.644-3.952c-3.78-4.124-2.062-11-2.062-11s2.119-6.874,8.535-8.076,11.571,3.322,11.571,3.322l-.516,5.041c-.057.286-.057.573-.115.859a7.951,7.951,0,0,1-1.088,2.578Z" transform="translate(-136.108 -103.512)" fill="#f9b587"/>
        <path id="Path_224" data-name="Path 224" d="M161.142,122.111s-2.463-4.01-5.442-1.661l.229.859s2.749-1.432,4.754,1.718Z" transform="translate(-142.977 -106.702)" fill="#2c2a40"/>
        <path id="Path_225" data-name="Path 225" d="M167.312,132.209a7.493,7.493,0,0,1-.4,2.52c-.573-.687-1.89-1.432-4.811-1.718a6.1,6.1,0,0,1,3.322-.516.589.589,0,0,0,.745-.63l-.229-2.807a1.753,1.753,0,0,1,1.146-.458,11.813,11.813,0,0,1,1.89.115,7.952,7.952,0,0,1-1.088,2.578Z" transform="translate(-145.711 -110.499)" fill="#f39568"/>
        <path id="Path_226" data-name="Path 226" d="M172.548,127.308a10.788,10.788,0,0,0-2.062-.115l-.286.8a6.461,6.461,0,0,1,2.177.172.494.494,0,0,0,.63-.344h0A.543.543,0,0,0,172.548,127.308Z" transform="translate(-149.172 -109.894)" fill="#2c2a40"/>
        <path id="Path_227" data-name="Path 227" d="M161.56,139.435,154,136.8s-.172,4.411,4.01,5.327C161.274,142.814,161.56,139.435,161.56,139.435Z" transform="translate(-142.25 -114.002)" fill="#fff"/>
        <path id="Path_228" data-name="Path 228" d="M149.6,145.65l-.344,2.979-.172.172-.115.115c-1.088-.516-5.785-2.864-6.243-6.243a8.883,8.883,0,0,1,.573-4.812,6.651,6.651,0,0,1,.687-1.26C144.962,143.875,149.6,145.65,149.6,145.65Z" transform="translate(-137.395 -113.917)" fill="#f39568"/>
        <path id="Path_229" data-name="Path 229" d="M140.387,123.821s-.745-3.15-3.208-2.406-2.807,7.332.573,6.931C141.131,127.888,140.387,123.821,140.387,123.821Z" transform="translate(-134.251 -107.381)" fill="#f9b587"/>
        <path id="Path_230" data-name="Path 230" d="M150.485,111.941a1.984,1.984,0,0,0-1.6,1.948c-.172,1.776-.458,4.869-2.807,4.812-2.291-.057-2.52,2.749-2.52,2.749l-1.661-.4s-.172-4.983.916-6.7C143.955,112.629,148.594,110.166,150.485,111.941Z" transform="translate(-137.074 -103.12)" fill="#2c2a40"/>
        <path id="Path_231" data-name="Path 231" d="M156.5,125.685a2.23,2.23,0,0,1,2.406-.573,2.142,2.142,0,0,1,1.489,2.177S159.479,125.112,156.5,125.685Z" transform="translate(-143.319 -108.959)" fill="#2c2a40"/>
        <path id="Path_232" data-name="Path 232" d="M169.5,130.956a1.523,1.523,0,0,1,1.2-.115c.63.229.4,1.088.4,1.088S170.989,130.9,169.5,130.956Z" transform="translate(-148.873 -111.423)" fill="#2c2a40"/>
      </g>
      <g id="Group_29" data-name="Group 29" transform="translate(90.835 39.449)">
        <g id="Group_28" data-name="Group 28">
          <rect id="Rectangle_2017" data-name="Rectangle 2017" width="31.332" height="20.735" transform="translate(11.077 1.112) rotate(32.288)" fill="#2c2a40"/>
          <path id="Path_233" data-name="Path 233" d="M238.218,157.233l-11.055,17.528L200.7,158.035l1.146-.115,35.914-2.52.344,1.2h0Z" transform="translate(-200.669 -139.391)" fill="#2c2a40"/>
          <path id="Path_234" data-name="Path 234" d="M252.073,156.6l-10.6,16.84c-.344-.229-.229-.115-.8-.516L233.4,156.145l18.33-.745Z" transform="translate(-214.639 -139.391)" fill="#fff"/>
          <rect id="Rectangle_2018" data-name="Rectangle 2018" width="29.957" height="20.735" transform="translate(11.792 0) rotate(32.288)" fill="#2c2a40"/>
        </g>
        <path id="Path_235" data-name="Path 235" d="M242.749,140.182h0a1.877,1.877,0,0,0-1.2-.916c0-.4-.4-.745-.859-.974a1.474,1.474,0,0,0-.859-.057c-.115-.458-.63-.859-.974-.745a.9.9,0,0,0-.229.057,1.432,1.432,0,0,0-.229-.573h0c-.229-.516-1.088-.974-1.489-.8,0,0-3.322.573-4.067,2.864-.8,2.291-1.776,4.926-.63,4.754a1.81,1.81,0,0,0,1.088-.859c-.4,1.375-.573,2.463.172,2.348.4-.057.916-.573,1.375-1.2-.344,1.2-.4,2,.286,1.948.63-.057,1.432-1.088,2-2.234-.4,1.317-.516,2.348.229,2.234.916-.115,1.547-1.948,2.463-3.38,1.088-1.661,1.031-.687,2.177-1.146l.859.516A1.848,1.848,0,0,0,242.749,140.182Z" transform="translate(-213.906 -131.161)" fill="#f9b587"/>
      </g>
      <path id="Path_236" data-name="Path 236" d="M118.956,141.068s.916-7.618-2.234-8.248c-6.129-1.2-12.945,7.847-16.611,17.3-5.556,14.205.859,24.859.859,24.859l.115-5.442s-.516-11.8,4.983-21.194c5.5-9.337,9.279-11.857,10.081-11.227s.859,2.463.859,2.463Z" transform="translate(-65.895 -90.25)" fill="#2c2a40"/>
      <path id="Path_237" data-name="Path 237" d="M159.1,154.429s1.833-4.754,7.733-2.635c5.155,1.833,4.582,7.332,3.838,14.549-.8,7.217-7.79,25.031-7.79,25.031a50.873,50.873,0,0,1,.516-10.024s4.812-15.867,3.093-22.11-5.613-4.3-5.613-4.3Z" transform="translate(-92.063 -98.169)" fill="#2c2a40"/>
    </g>
  </g>
</svg>
